<?xml version="1.0" encoding="utf-8"?>
<!-- Generator: Adobe Illustrator 23.0.1, SVG Export Plug-In . SVG Version: 6.00 Build 0)  -->
<svg version="1.1" id="Слой_1" xmlns="http://www.w3.org/2000/svg" xmlns:xlink="http://www.w3.org/1999/xlink" x="0px" y="0px"
	 viewBox="0 0 52 52" style="enable-background:new 0 0 52 52;" xml:space="preserve">
<style type="text/css">
	.st0{clip-path:url(#SVGID_2_);}
	.st1{fill:#AE7C78;}
</style>
<g>
	<defs>
		<rect id="SVGID_1_" width="52" height="52"/>
	</defs>
	<clipPath id="SVGID_2_">
		<use xlink:href="#SVGID_1_"  style="overflow:visible;"/>
	</clipPath>
	<g class="st0">
		<path class="st1" d="M35.7,13.9c0.21,0,0.42-0.02,0.64-0.05c1.06-0.17,1.99-0.74,2.62-1.61l3.83-5.27
			c0.16-0.21,0.19-0.49,0.09-0.74c-0.1-0.24-0.32-0.42-0.58-0.46c-0.07-0.01-1.57-0.26-3.4-0.28c-0.59-1.74-1.28-3.09-1.32-3.15
			c-0.12-0.23-0.36-0.39-0.62-0.41c-0.26-0.02-0.52,0.1-0.67,0.31l-3.83,5.27c-0.63,0.87-0.89,1.93-0.72,2.99
			c0.12,0.78,0.47,1.5,0.99,2.07c-0.58,0.69-1.6,1.94-2.72,3.5v-0.67c0-0.42-0.34-0.76-0.76-0.76s-0.76,0.34-0.76,0.76v2.91
			c-0.61,0.96-1.21,1.97-1.73,3v-4.28c0,0,0,0,0,0v-1.31l2.22-2.22c0.3-0.3,0.3-0.78,0-1.08c-0.3-0.3-0.78-0.3-1.08,0l-1.14,1.14
			v-2.36c1.85-0.36,3.26-1.99,3.26-3.94V0.76c0-0.26-0.14-0.51-0.36-0.65c-0.22-0.14-0.5-0.15-0.74-0.03
			C28.85,0.11,27.5,0.79,26,1.85c-1.5-1.06-2.85-1.74-2.92-1.77c-0.24-0.12-0.52-0.11-0.74,0.03c-0.22,0.14-0.36,0.38-0.36,0.65
			v6.51c0,1.96,1.4,3.59,3.26,3.94v3.99l-1.96-1.96c-0.3-0.3-0.78-0.3-1.08,0c-0.3,0.3-0.3,0.78,0,1.08l3.03,3.03v3.96
			c-1.94-3.79-4.83-7.38-5.97-8.74c0.52-0.57,0.87-1.29,0.99-2.07c0.17-1.06-0.09-2.12-0.72-2.99l-3.83-5.27
			c-0.16-0.21-0.41-0.33-0.67-0.31c-0.26,0.02-0.5,0.17-0.62,0.41c-0.03,0.06-0.73,1.41-1.32,3.15c-1.83,0.02-3.33,0.27-3.4,0.28
			C9.44,5.82,9.22,5.99,9.12,6.23c-0.1,0.24-0.07,0.52,0.09,0.74l3.83,5.27c0.63,0.87,1.56,1.44,2.62,1.61
			c0.21,0.03,0.43,0.05,0.64,0.05c0.61,0,1.2-0.14,1.74-0.4c0.24,0.28,0.56,0.67,0.95,1.16h-0.67c-0.42,0-0.76,0.34-0.76,0.76
			c0,0.42,0.34,0.76,0.76,0.76h1.84c1.11,1.5,2.4,3.38,3.45,5.32c-1.24-1.22-2.62-2.31-4.12-3.27c-4.56-2.9-8.67-3.54-8.84-3.57
			c-0.22-0.03-0.44,0.03-0.61,0.18c-0.17,0.14-0.26,0.36-0.26,0.58c0,0.12,0.02,3.03,1.47,7.08c1.31,3.65,4.1,8.96,9.93,13.64v2.79
			l-3.23,12.12c-0.06,0.23-0.01,0.47,0.13,0.66c0.14,0.19,0.37,0.3,0.6,0.3h14.65c0.24,0,0.46-0.11,0.6-0.3
			c0.14-0.19,0.19-0.43,0.13-0.66l-3.23-12.12v-2.79c5.83-4.68,8.62-9.99,9.93-13.64c1.45-4.05,1.47-6.95,1.47-7.08
			c0-0.22-0.1-0.43-0.26-0.58c-0.17-0.14-0.39-0.21-0.61-0.18c-0.1,0.02-2.51,0.39-5.68,1.85c-2.08,0.96-4.77,2.53-7.29,5
			c1.05-1.95,2.34-3.84,3.46-5.34h1.84c0.42,0,0.76-0.34,0.76-0.76c0-0.42-0.34-0.76-0.76-0.76h-0.67c0.38-0.48,0.71-0.88,0.94-1.16
			C34.5,13.76,35.1,13.9,35.7,13.9z M40.8,7.12l-1.15,1.58c-0.05-0.52-0.15-1.08-0.3-1.68C39.88,7.05,40.38,7.08,40.8,7.12z
			 M12.35,8.71L11.2,7.12c0.42-0.04,0.91-0.08,1.45-0.09C12.51,7.63,12.41,8.18,12.35,8.71z M17.75,11.9
			c-0.54,0.39-1.2,0.55-1.86,0.45c-0.66-0.1-1.24-0.46-1.63-1c-1.09-1.5,0.07-5.06,0.97-7.16l3.07,4.23
			C19.12,9.53,18.87,11.09,17.75,11.9z M28.49,2.05v1.95c-0.35-0.39-0.76-0.78-1.23-1.18C27.71,2.53,28.13,2.27,28.49,2.05z
			 M23.5,7.27V2.05c1.96,1.17,4.99,3.36,4.99,5.22c0,1.38-1.12,2.49-2.49,2.49C24.62,9.77,23.5,8.65,23.5,7.27z M12.7,22.04
			c-0.9-2.49-1.22-4.54-1.34-5.68c1.42,0.35,4.27,1.22,7.31,3.15c2.52,1.6,4.66,3.61,6.36,5.96c1.97,2.72,3.35,5.92,4.12,9.53h-1.77
			c-0.97-4.27-2.89-7.91-5.71-10.82c-0.29-0.3-0.77-0.31-1.08-0.02c-0.3,0.29-0.31,0.77-0.02,1.08c2.54,2.63,4.3,5.91,5.23,9.76
			H22.2C16.62,30.55,13.95,25.51,12.7,22.04z M29.31,36.53v1.73h-6.62v-1.73H29.31z M32.34,50.48h-3.23l-0.13-0.97
			c-0.06-0.42-0.44-0.71-0.86-0.65c-0.42,0.06-0.71,0.44-0.65,0.86l0.1,0.77h-7.91l2.85-10.69h3.63l0.89,6.67
			c0.05,0.38,0.38,0.66,0.75,0.66c0.03,0,0.07,0,0.1-0.01c0.42-0.06,0.71-0.44,0.65-0.86l-0.86-6.47h1.8L32.34,50.48z M36.27,17.91
			c1.84-0.85,3.43-1.32,4.37-1.55c-0.12,1.13-0.44,3.18-1.34,5.67c-1.2,3.31-3.67,8.04-8.74,12.34c-0.73-3.27-1.95-6.23-3.64-8.83
			C29.85,21.47,33.6,19.15,36.27,17.91z M33.69,8.41l3.07-4.23c0.9,2.1,2.06,5.65,0.97,7.16c-0.39,0.54-0.97,0.89-1.63,1
			c-0.66,0.1-1.32-0.05-1.86-0.45C33.13,11.09,32.88,9.53,33.69,8.41z"/>
		<path class="st1" d="M19.13,21.96c-0.54-0.41-1.1-0.79-1.68-1.15c-0.36-0.22-0.83-0.11-1.05,0.25c-0.22,0.36-0.11,0.83,0.25,1.05
			c0.54,0.33,1.07,0.7,1.57,1.07c0.14,0.1,0.3,0.15,0.46,0.15c0.23,0,0.46-0.1,0.61-0.3C19.54,22.69,19.47,22.21,19.13,21.96z"/>
	</g>
</g>
</svg>
