<?xml version="1.0" encoding="utf-8"?>
<!-- Generator: Adobe Illustrator 23.0.1, SVG Export Plug-In . SVG Version: 6.00 Build 0)  -->
<svg version="1.1" id="Слой_1" xmlns="http://www.w3.org/2000/svg" xmlns:xlink="http://www.w3.org/1999/xlink" x="0px" y="0px"
	 viewBox="0 0 58.6 52" style="enable-background:new 0 0 58.6 52;" xml:space="preserve">
<style type="text/css">
	.st0{fill:#AE7C78;}
</style>
<path class="st0" d="M51.68,9.19h-2.72c-0.47,0-0.86,0.38-0.86,0.86c0,0.47,0.38,0.86,0.86,0.86h2.72c0.47,0,0.86-0.38,0.86-0.86
	C52.54,9.57,52.15,9.19,51.68,9.19z"/>
<path class="st0" d="M36.41,13.33c-4.8,0-8.7,3.91-8.7,8.71c0,4.8,3.9,8.7,8.7,8.7c4.8,0,8.71-3.9,8.71-8.7
	C45.11,17.24,41.21,13.33,36.41,13.33z M36.41,29.03c-3.85,0-6.99-3.13-6.99-6.99c0-3.85,3.13-6.99,6.99-6.99
	c3.85,0,6.99,3.14,6.99,6.99C43.4,25.89,40.26,29.03,36.41,29.03z"/>
<path class="st0" d="M55.38,4.61H44.95l-1.01-2.79C43.78,1.37,43.29,0,41.89,0H28.53c-1.4,0-1.89,1.37-2.06,1.82l-1.01,2.79h-8.49
	V2.53c0-1.13-0.92-2.05-2.05-2.05H11.1c-1.13,0-2.05,0.92-2.05,2.05v2.11C7.52,4.88,6.33,6.22,6.33,7.82v17.56l-3.89,0.75
	c-1.63,0.32-2.71,1.91-2.39,3.54l3.85,19.88C4.19,51,5.46,52,6.88,52c0.19,0,0.38-0.02,0.57-0.05l8.38-1.63
	c0.47-0.09,0.77-0.54,0.68-1.01c-0.09-0.47-0.54-0.77-1.01-0.68l-8.38,1.63c-0.71,0.14-1.39-0.33-1.53-1.03L1.74,29.35
	c-0.14-0.7,0.33-1.39,1.03-1.53l20.9-4.05c0.34-0.06,0.69,0.01,0.97,0.2c0.29,0.2,0.49,0.49,0.55,0.83l3.86,19.88
	c0.14,0.7-0.33,1.39-1.03,1.53l-8.39,1.63c-0.47,0.09-0.77,0.54-0.68,1.01c0.09,0.47,0.54,0.77,1.01,0.68l8.39-1.63
	c1.63-0.32,2.71-1.91,2.39-3.54l-1.04-5.38h9.58c0.47,0,0.86-0.38,0.86-0.86c0-0.47-0.38-0.86-0.86-0.86h-9.91l-0.9-4.66
	c2.27,1.71,5.06,2.66,7.94,2.66c5.73,0,10.62-3.66,12.45-8.77h8.03v9.27c0,0.83-0.67,1.5-1.5,1.5h-11.9c-0.47,0-0.86,0.38-0.86,0.86
	c0,0.47,0.38,0.86,0.86,0.86h11.9c1.77,0,3.21-1.44,3.21-3.22V7.82C58.6,6.05,57.15,4.61,55.38,4.61z M28.09,2.4
	c0.16-0.45,0.31-0.68,0.44-0.68h13.35c0.16,0,0.33,0.37,0.44,0.68l0.8,2.21H27.29L28.09,2.4z M23.19,22.04c0,0.02,0,0.05,0,0.07
	l-6.22,1.21v-4.01h6.5C23.29,20.19,23.19,21.1,23.19,22.04z M10.77,2.53c0-0.18,0.15-0.33,0.33-0.33h3.82
	c0.18,0,0.33,0.15,0.33,0.33v2.07h-4.49V2.53z M8.05,7.82c0-0.83,0.67-1.5,1.5-1.5h0.37h5.34v17.33l-2.91,0.56v-9.68
	c0-0.82-0.67-1.5-1.5-1.5H8.05V7.82z M8.05,14.75h2.59v9.79l-2.59,0.5V14.75z M36.41,33.54c-3.23,0-6.31-1.36-8.49-3.74l-1.03-5.32
	c-0.15-0.79-0.6-1.47-1.28-1.93c-0.22-0.15-0.46-0.27-0.7-0.35c0-0.05,0-0.1,0-0.16c0-6.34,5.16-11.5,11.5-11.5
	c6.34,0,11.5,5.16,11.5,11.5C47.91,28.38,42.75,33.54,36.41,33.54z M56.88,24.77h-7.54c0.19-0.88,0.28-1.8,0.28-2.73
	s-0.1-1.85-0.28-2.73h7.54V24.77z M56.88,17.59h-8.03c-1.83-5.11-6.72-8.77-12.45-8.77c-5.73,0-10.61,3.66-12.44,8.77h-6.99V6.32
	h9.09h18.28h11.03c0.83,0,1.5,0.67,1.5,1.5L56.88,17.59L56.88,17.59z"/>
<path class="st0" d="M26,43.46c0.2-0.3,0.27-0.65,0.21-0.99l-2.92-14.66c-0.16-0.77-0.96-1.24-1.82-1.07L5.55,29.83
	c-0.87,0.17-1.44,0.9-1.29,1.68l2.92,14.65c0.06,0.34,0.27,0.64,0.56,0.84c0.26,0.18,0.58,0.27,0.92,0.27
	c0.11,0,0.23-0.01,0.34-0.03l15.92-3.09C25.37,44.07,25.77,43.82,26,43.46z M7.64,39.66L6,31.49l15.67-3.04l0.95,4.78l-2.01,0.39
	c-3.83,0.74-5.1,1.89-6.33,3C13.09,37.69,11.86,38.8,7.64,39.66z M8.8,45.53l-0.4-2.06l-0.43-2.13c4.68-0.95,6.15-2.27,7.45-3.45
	c1.15-1.04,2.15-1.94,5.51-2.59l2.02-0.39l1.51,7.58L8.8,45.53z"/>
</svg>
