<?xml version="1.0" encoding="utf-8"?>
<!-- Generator: Adobe Illustrator 23.0.1, SVG Export Plug-In . SVG Version: 6.00 Build 0)  -->
<svg version="1.1" id="Слой_1" xmlns="http://www.w3.org/2000/svg" xmlns:xlink="http://www.w3.org/1999/xlink" x="0px" y="0px"
	 viewBox="0 0 66.1 52" style="enable-background:new 0 0 66.1 52;" xml:space="preserve">
<style type="text/css">
	.st0{fill:#AE7C78;}
</style>
<g>
	<path class="st0" d="M54.7,39.5h4.2c0.5,0,1-0.4,1-1V5.1c0-0.5-0.4-1-1-1H7.2c-0.5,0-1,0.4-1,1v33.4c0,0.5,0.4,1,1,1h42.9
		c0.5,0,1-0.4,1-1c0-0.5-0.4-1-1-1h-42V6.1h49.7v31.4h-3.2c-0.5,0-1,0.4-1,1C53.7,39.1,54.1,39.5,54.7,39.5z"/>
	<path class="st0" d="M65.1,41.7H64V3.6c0-2-1.6-3.6-3.6-3.6H15.5c-0.5,0-1,0.4-1,1c0,0.5,0.4,1,1,1h44.9c0.9,0,1.6,0.7,1.6,1.6
		v38.1H4V3.6c0-0.9,0.7-1.6,1.6-1.6H11c0.5,0,1-0.4,1-1c0-0.5-0.4-1-1-1H5.7c-2,0-3.6,1.6-3.6,3.6v38.1H1c-0.5,0-1,0.4-1,1v5.2
		C0,50.2,1.8,52,4.1,52h4.8c0.5,0,1-0.4,1-1c0-0.5-0.4-1-1-1H4.1c-1.2,0-2.2-1-2.2-2.2v-4.2h23.9l0.5,1.7c0.5,1.5,1.8,2.5,3.4,2.5
		h6.6c1.6,0,2.9-1,3.4-2.5l0.5-1.7h23.9v4.2c0,1.2-1,2.2-2.2,2.2H13.4c-0.5,0-1,0.4-1,1c0,0.5,0.4,1,1,1H62c2.3,0,4.1-1.8,4.1-4.1
		v-5.2C66.1,42.2,65.6,41.7,65.1,41.7z M37.9,44.7c-0.2,0.7-0.8,1.2-1.6,1.2h-6.6c-0.7,0-1.3-0.5-1.6-1.2l-0.3-1.1h10.4L37.9,44.7z"
		/>
	<path class="st0" d="M24.3,23.3c0.5,0,0.9-0.3,0.9-0.8l1.2-5.9c0.1-0.3,0-0.6-0.2-0.8c-0.2-0.2-0.5-0.4-0.7-0.4H18
		c-0.5,0-1,0.4-1,1c0,0.5,0.4,1,1,1h6.3l-0.8,3.9H16l-1.3-7c-0.1-0.5-0.5-0.8-1-0.8h-2.3c-0.5,0-1,0.4-1,1c0,0.5,0.4,1,1,1h1.5
		l1.3,6.9v4.1c0,0.5,0.4,1,1,1h0c0,0.1,0,0.2,0,0.3c0,0.7,0.6,1.3,1.3,1.3c0.6,0,1.1-0.4,1.2-0.9c0-0.1,0.1-0.3,0.1-0.4
		c0-0.1,0-0.2,0-0.3h2.2c0,0,0,0,0,0.1c0,0.1,0,0.2,0,0.3c0,0.7,0.6,1.3,1.3,1.3c0.6,0,1.2-0.4,1.3-1c0-0.1,0-0.2,0-0.3
		c0-0.1,0-0.2,0-0.3h0.3c0.5,0,1-0.4,1-1c0-0.5-0.4-1-1-1h-6.6v-2.2L24.3,23.3L24.3,23.3z"/>
	<path class="st0" d="M37.4,11.4c0-0.5-0.4-1-1-1h-4.2c-0.5,0-1,0.4-1,1v4.2c0,0.5,0.4,1,1,1h4.2c0.5,0,1-0.4,1-1V11.4z M35.5,14.6
		h-2.2v-2.2h2.2V14.6z"/>
	<path class="st0" d="M40.6,16.5h8.9c0.5,0,1-0.4,1-1c0-0.5-0.4-1-1-1h-8.9c-0.5,0-1,0.4-1,1C39.6,16.1,40.1,16.5,40.6,16.5z"/>
	<path class="st0" d="M40.6,12.4h14.1c0.5,0,1-0.4,1-1c0-0.5-0.4-1-1-1H40.6c-0.5,0-1,0.4-1,1C39.6,11.9,40.1,12.4,40.6,12.4z"/>
	<path class="st0" d="M37.4,19.7c0-0.5-0.4-1-1-1h-4.2c-0.5,0-1,0.4-1,1v4.2c0,0.5,0.4,1,1,1h4.2c0.5,0,1-0.4,1-1V19.7z M35.5,22.9
		h-2.2v-2.2h2.2V22.9z"/>
	<path class="st0" d="M40.6,24.9h8.9c0.5,0,1-0.4,1-1c0-0.5-0.4-1-1-1h-8.9c-0.5,0-1,0.4-1,1C39.6,24.4,40.1,24.9,40.6,24.9z"/>
	<path class="st0" d="M40.6,20.7h14.1c0.5,0,1-0.4,1-1c0-0.5-0.4-1-1-1H40.6c-0.5,0-1,0.4-1,1C39.6,20.3,40.1,20.7,40.6,20.7z"/>
	<path class="st0" d="M36.4,27.1h-4.2c-0.5,0-1,0.4-1,1v4.2c0,0.5,0.4,1,1,1h4.2c0.5,0,1-0.4,1-1v-4.2C37.4,27.6,37,27.1,36.4,27.1z
		 M35.5,31.3h-2.2v-2.2h2.2V31.3z"/>
	<path class="st0" d="M40.6,31.3c-0.5,0-1,0.4-1,1c0,0.5,0.4,1,1,1h8.9c0.5,0,1-0.4,1-1c0-0.5-0.4-1-1-1H40.6z"/>
	<path class="st0" d="M55.7,28.1c0-0.5-0.4-1-1-1H40.6c-0.5,0-1,0.4-1,1c0,0.5,0.4,1,1,1h14.1C55.2,29.1,55.7,28.6,55.7,28.1z"/>
</g>
</svg>
