<?xml version="1.0" encoding="utf-8"?>
<!-- Generator: Adobe Illustrator 23.0.1, SVG Export Plug-In . SVG Version: 6.00 Build 0)  -->
<svg version="1.1" id="Слой_1" xmlns="http://www.w3.org/2000/svg" xmlns:xlink="http://www.w3.org/1999/xlink" x="0px" y="0px"
	 viewBox="0 0 37.5 52" style="enable-background:new 0 0 37.5 52;" xml:space="preserve">
<style type="text/css">
	.st0{fill:#AE7C78;}
</style>
<g>
	<path class="st0" d="M35.2,37.3c-0.7-3.4-3.9-4-3.9-4v0c0,0,0.3,0.1-7.9-1.9V31h6c1.2,0,2.2-1,2.2-2.2V17.3c0.1-0.4,0.1-0.9,0-1.3
		v-4.2c0-0.4-0.3-0.8-0.8-0.8c-0.4,0-0.8,0.3-0.8,0.8V14c-0.4-0.2-0.9-0.4-1.4-0.5c-0.2-0.8-0.8-1.4-1.7-1.5c-0.9-0.1-1.5-0.6-2-1.5
		c-0.2-0.4-0.6-0.7-1.1-0.7c-0.5,0-0.9,0.2-1.2,0.5c-1.3,1.8-5,5.8-11.2,5.8c-0.5,0-0.8,0-0.9,0c-1.2-0.1-2.1,0.9-2.1,2v1.8
		c0,2.8,1.2,5.5,3.2,7.4c0.7,0.6,1.4,1.2,2.2,1.6v0.6h-6c-0.4,0-0.7-0.3-0.7-0.7V11.6c0-5.5,4.5-10.1,10-10.1c0,0,0,0,0.1,0
		c2,0,4.2,0.6,5.8,1.4c1,0.5,1.6,0.1,2.5,0.1c2.4,0,4.2,2.4,4.5,4.6c0,0,0,0.2,0,0.6c0,0.7,0.8,0.8,0.8,0.8c0.4,0,0.8-0.3,0.8-0.8
		c0-0.1,0-0.7,0-0.8c-0.3-3-2.9-6-6-6c-1.2,0-1.4,0.3-1.8,0.1c-1.7-1-4.3-1.6-6.5-1.6C11.1,0,5.8,5.2,5.8,11.6v17.1
		c0,1.2,1,2.2,2.2,2.2h6v0.3l-7.8,1.9c0,0,0,0,0,0l-0.6,0.2c0,0,0,0-0.1,0c-1,0.4-2.8,1.4-3.3,3.8C0,48.9,0.1,48.4,0,48.4
		c-0.3,2,0.7,3.6,3.1,3.6h8.2c0.4,0,0.8-0.3,0.8-0.8c0-0.4-0.3-0.8-0.8-0.8H8.5v-7.2c0-0.4-0.3-0.8-0.8-0.8c-0.4,0-0.8,0.3-0.8,0.8
		v7.2H3.1c-1,0-1.6-0.3-1.6-1.4c0-0.5,0,0,2.2-11.5c0.3-1.7,1.6-2.4,2.3-2.7l0.5-0.2l4.5-1.1c5,5.9,4.7,5.6,5,5.9
		c1.7,1.6,4,1.5,5.6-0.3l4.7-5.5l4.5,1.1c0.1,0.1,2.4,0.5,2.8,2.9C36,49,36,48.6,36,49.1c0,1-0.6,1.4-1.6,1.4h-3.8v-7.2
		c0-0.4-0.3-0.8-0.8-0.8c-0.4,0-0.8,0.3-0.8,0.8v7.2H14.9c-0.4,0-0.8,0.3-0.8,0.8c0,0.4,0.3,0.8,0.8,0.8h19.4c1.9,0,3.1-1,3.1-2.9
		C37.5,48.2,37.4,48.6,35.2,37.3z M28.9,15.1c0.6,0.2,1.1,0.6,1.3,1.1v0.9c-0.2,0.5-0.7,0.9-1.3,1.1V15.1z M28.9,19.9v-0.1
		c0.5-0.1,0.9-0.3,1.3-0.5v9.5c0,0.4-0.3,0.7-0.7,0.7h-6v-0.6C26.7,27.2,28.9,23.8,28.9,19.9z M12.9,26.1c-1.7-1.6-2.7-4-2.7-6.3
		c0-1.7-0.1-1.9,0.2-2.1c0.1-0.1,0.2-0.1,0.4-0.1c5.5,0.3,10.2-2.1,13.3-6.1c0.8,1.5,2.1,1.9,3,2c0.2,0,0.4,0.2,0.4,0.5
		c0,2.1,0,3.9,0,6C27.3,27.5,18.3,31.3,12.9,26.1z M20.5,38.1c-1.1,1.2-2.5,1.2-3.6,0l-1.6-1.9h6.8L20.5,38.1z M23.4,34.7h-9.4
		l-1.3-1.5l2.2-0.6c0.3-0.1,0.6-0.4,0.6-0.7l0-2.4c2.1,0.7,4.3,0.7,6.4,0c0,2.4,0,2.4,0,2.6c0.1,0.2,0.3,0.4,0.5,0.5l2.3,0.6
		L23.4,34.7z"/>
</g>
</svg>
