<?xml version="1.0" encoding="utf-8"?>
<!-- Generator: Adobe Illustrator 23.0.1, SVG Export Plug-In . SVG Version: 6.00 Build 0)  -->
<svg version="1.1" id="Слой_1" xmlns="http://www.w3.org/2000/svg" xmlns:xlink="http://www.w3.org/1999/xlink" x="0px" y="0px"
	 viewBox="0 0 82 52" style="enable-background:new 0 0 82 52;" xml:space="preserve">
<style type="text/css">
	.st0{fill:#AE7C78;}
</style>
<path class="st0" d="M80.67,24.01c-0.85-1.02-2.02-1.68-3.35-1.93l-0.63-8.52c0.62-0.01,1.14-0.45,1.25-1.06l0.24-1.37
	c0.26-1.47-0.1-2.92-0.99-3.99c-0.89-1.06-2.19-1.64-3.66-1.64h-9.43l0.46-2.61c0.13-0.74-0.06-1.48-0.52-2.03
	C63.6,0.31,62.91,0,62.18,0h-46.4c-1.37,0-2.63,1.07-2.88,2.44L8.8,25.78c-0.12,0.7,0.34,1.37,1.04,1.49
	c0.08,0.01,0.15,0.02,0.22,0.02c0.61,0,1.15-0.44,1.26-1.06l4.11-23.34c0.03-0.15,0.22-0.31,0.35-0.31l46.24,0l-4.08,23.2
	c-0.12,0.7,0.34,1.37,1.04,1.49c0.7,0.12,1.36-0.34,1.49-1.04l0.3-1.68h15.35c0,0,0,0,0,0s0,0,0,0c1.06,0,1.98,0.4,2.58,1.12
	c0.42,0.5,0.66,1.11,0.72,1.8h-4.26c-0.62,0-1.16,0.45-1.26,1.06l-0.48,2.75c-0.19,1.11,0.08,2.2,0.75,3.01
	c0.66,0.79,1.67,1.25,2.77,1.25h1.21l-1,5.66h-3.39c-0.22-1.13-0.71-2.17-1.45-3.06c-1.31-1.57-3.25-2.43-5.44-2.43
	c-3.52,0-6.92,2.31-8.51,5.49h-0.52l1.67-9.47c0.12-0.7-0.34-1.37-1.04-1.49c-0.7-0.12-1.36,0.34-1.49,1.04l-1.74,9.92H31.46
	c-0.22-1.13-0.71-2.17-1.45-3.06c-1.31-1.57-3.25-2.43-5.44-2.43c-3.52,0-6.92,2.31-8.51,5.49l-7.36,0l0.51-2.92h5.77
	c0.71,0,1.28-0.58,1.28-1.29c0-0.71-0.57-1.29-1.28-1.29H1.28C0.57,35.7,0,36.27,0,36.98c0,0.71,0.57,1.29,1.28,1.29H6.6l-0.46,2.61
	c-0.13,0.74,0.06,1.48,0.52,2.03c0.45,0.54,1.14,0.85,1.87,0.85h6.69c-0.35,2.18,0.18,4.24,1.48,5.8c1.31,1.57,3.25,2.43,5.44,2.43
	c4.37,0,8.55-3.56,9.32-7.93c0.02-0.1,0.03-0.21,0.05-0.31h26c-0.35,2.18,0.17,4.24,1.48,5.8c1.31,1.57,3.25,2.43,5.44,2.43
	c4.37,0,8.55-3.56,9.32-7.93c0.02-0.1,0.03-0.21,0.05-0.31h4.41c0.62,0,1.16-0.45,1.26-1.06l2.41-13.73
	C82.22,27.11,81.79,25.34,80.67,24.01z M61.21,21.97l1.48-8.41h11.42l0.62,8.41H61.21z M75.66,10.67l-0.05,0.31H63.15l0.51-2.92
	h9.88c0.7,0,1.3,0.26,1.69,0.72C75.63,9.27,75.79,9.94,75.66,10.67z M28.94,43.62c-0.56,3.2-3.61,5.8-6.79,5.8
	c-1.42,0-2.66-0.54-3.47-1.51c-0.84-1-1.16-2.37-0.9-3.84c0.56-3.2,3.61-5.8,6.79-5.8c1.42,0,2.66,0.54,3.47,1.51
	C28.88,40.79,29.2,42.15,28.94,43.62z M71.23,43.62c-0.56,3.2-3.61,5.8-6.79,5.8c-1.42,0-2.66-0.54-3.47-1.51
	c-0.84-1-1.16-2.37-0.9-3.84c0.56-3.2,3.61-5.8,6.79-5.8c1.42,0,2.66,0.54,3.47,1.51C71.17,40.79,71.49,42.15,71.23,43.62z
	 M78.59,32.95h-1.66v0c-0.34,0-0.62-0.11-0.8-0.33c-0.19-0.22-0.26-0.55-0.19-0.91l0.3-1.68h2.87L78.59,32.95z"/>
<path class="st0" d="M25.47,42.04c-0.45-0.54-1.14-0.85-1.88-0.85c-1.37,0-2.64,1.07-2.88,2.44c-0.13,0.74,0.06,1.48,0.52,2.03
	c0.45,0.54,1.14,0.85,1.87,0.85c1.37,0,2.64-1.07,2.88-2.44C26.12,43.33,25.93,42.59,25.47,42.04z"/>
<path class="st0" d="M67.76,42.04c-0.45-0.54-1.14-0.85-1.87-0.85c-1.37,0-2.64,1.07-2.88,2.44c-0.13,0.74,0.06,1.48,0.52,2.03
	c0.45,0.54,1.14,0.85,1.87,0.85c1.37,0,2.64-1.07,2.88-2.44C68.41,43.33,68.22,42.59,67.76,42.04z"/>
<path class="st0" d="M51.79,35.7H35.52c-0.71,0-1.28,0.58-1.28,1.29c0,0.71,0.57,1.29,1.28,1.29h16.27c0.71,0,1.28-0.58,1.28-1.29
	C53.07,36.27,52.5,35.7,51.79,35.7z"/>
<path class="st0" d="M28.67,30.2H4.99c-0.71,0-1.28,0.58-1.28,1.29c0,0.71,0.57,1.29,1.28,1.29h23.68c0.71,0,1.28-0.58,1.28-1.29
	C29.96,30.78,29.38,30.2,28.67,30.2z"/>
<path class="st0" d="M53.19,25.03l-4.75-4.12c-0.54-0.46-1.35-0.41-1.81,0.13c-0.46,0.54-0.4,1.35,0.13,1.82l2.14,1.86H16.35
	c-0.71,0-1.28,0.58-1.28,1.29c0,0.71,0.57,1.29,1.28,1.29h31.74l-2.65,1.76c-0.59,0.39-0.75,1.19-0.36,1.78
	c0.25,0.37,0.66,0.58,1.07,0.58c0.24,0,0.49-0.07,0.71-0.21l6.2-4.12c0.34-0.22,0.55-0.59,0.57-0.99
	C53.66,25.68,53.5,25.29,53.19,25.03z"/>
</svg>
