<?xml version="1.0" encoding="utf-8"?>
<!-- Generator: Adobe Illustrator 23.0.1, SVG Export Plug-In . SVG Version: 6.00 Build 0)  -->
<svg version="1.1" id="Слой_1" xmlns="http://www.w3.org/2000/svg" xmlns:xlink="http://www.w3.org/1999/xlink" x="0px" y="0px"
	 viewBox="0 0 100 32.3" style="enable-background:new 0 0 100 32.3;" xml:space="preserve">
<style type="text/css">
	.st0{clip-path:url(#SVGID_2_);}
	.st1{fill:#FCDCDC;}
	.st2{fill:#FFFFFF;}
</style>
<g>
	<g>
		<defs>
			<rect id="SVGID_1_" width="100" height="32.3"/>
		</defs>
		<clipPath id="SVGID_2_">
			<use xlink:href="#SVGID_1_"  style="overflow:visible;"/>
		</clipPath>
		<g class="st0">
			<path class="st1" d="M9.7,17.2c-2,2.5-6,2.6-8.2,0.3c-2.1-2.1-1.9-5.6,0-7.7c0.9-2.8,5-2.5,7.2-0.7C11.2,11.1,11.7,14.6,9.7,17.2
				z"/>
			<path class="st1" d="M13.5,9.5c-2,0-2.8-1.2-3-2.7c-0.6-1.9,0.2-4.1,2.3-4.6c0.5-0.1,1-0.1,1.5-0.1c0.5,0.1,1,0.3,1.4,0.6
				c0.4,0.3,0.8,0.7,1.1,1.1s0.4,0.9,0.5,1.4c0.1,0.5,0,1.1-0.1,1.6c-0.2,0.5-0.4,1-0.8,1.4c-0.4,0.4-0.8,0.7-1.3,1
				C14.6,9.4,14,9.5,13.5,9.5z"/>
			<path class="st2" d="M19.7,31.1l0.1-0.2c-0.8-0.5-1.6-1.1-2.5-1.6c-0.7-0.6-1.3-1.2-1.9-1.9c-0.8-0.8-1.5-1.7-2.3-2.5
				c-0.1-0.1-0.2-0.2-0.2-0.2c-0.8-0.8-1.4-1.7-1.9-2.7c-0.5-0.8-0.9-1.6-1.3-2.4c0-0.1,0.1-0.2,0.1-0.4c0.2,0,0.3-0.1,0.5-0.2
				c0.5-0.4,0.8-1,1-1.6c0.8-2,1.5-4.1,1.4-6.3c0-0.1-0.1-0.2-0.1-0.3c-0.1,0.1-0.2,0.1-0.3,0.2c-0.5,0.7-1.1,1.4-1.5,2.1
				c-0.7,1-1.2,2.2-1.5,3.4c-0.1,0.6-0.1,1.2-0.2,1.8c0,0-0.1-0.1-0.1-0.1c-0.3-0.7-0.6-1.5-0.9-2.2c0-0.1-0.1-0.2,0-0.3
				c0-0.1,0.1-0.2,0.1-0.2c0.4-0.4,0.7-0.7,1-1.2c0.8-1.3,1.4-2.8,1.7-4.3c0.1-0.5,0.2-1.1,0.2-1.7c0-0.2-0.1-0.4-0.2-0.5
				c-0.2,0.1-0.3,0.2-0.5,0.3c-0.4,0.5-0.8,1-1.2,1.5c-0.7,0.9-1.3,2-1.5,3.2c-0.1,0.6-0.1,1.1-0.2,1.7h0l-0.7-2.7l0.2,0.3
				c0.1-0.2,0.2-0.3,0.3-0.4c0.4-0.6,1-1,1.3-1.7c0.5-1,0.8-2,1.1-3c0.1-0.5,0.2-1,0.2-1.5c0-0.1-0.1-0.3-0.1-0.4
				C9.8,5,9.6,5,9.6,5.1c-0.7,1-1.5,2-2.1,3C7.1,8.7,6.9,9.2,6.7,9.8C6.6,9.5,6.6,9.1,6.8,8.8c0.6-1.6,1-3.2,1.2-4.8
				c0.1-1.2,0.2-2.3,0.2-3.5C8.1,0.3,8.1,0.1,8,0C7.9,0.1,7.7,0.1,7.6,0.2C6.9,1.1,6.3,2.1,6,3.3C5.6,5,5.8,6.8,6.1,8.5
				c0.2,0.8,0.3,1.6,0.5,2.4c-0.8-0.3-1.5-0.6-2.2-0.8C3.1,9.7,1.8,9.7,0.6,9.9c-0.2,0.1-0.3,0.1-0.4,0.2c0.1,0.2,0.2,0.3,0.3,0.4
				c0.9,0.7,1.9,1.1,3,1.1c0.9,0,1.8-0.1,2.6-0.3c0.5-0.1,0.5-0.1,0.6,0.4c0.1,0.5,0.3,1.1,0.4,1.6c0.1,0.4,0.2,0.8,0.3,1.3
				c-0.1-0.1-0.2-0.1-0.2-0.1c-0.9-0.6-1.9-0.9-2.9-0.7c-1.1,0.2-2.1,0.5-3.2,0.7c-0.2,0-0.3,0.1-0.5,0.2c-0.1,0-0.1,0.1-0.1,0.1
				c0,0-0.1,0.1-0.1,0.2s0,0.1,0.1,0.2c0,0,0.1,0.1,0.1,0.1c0.5,0.3,1.1,0.5,1.7,0.7c0.7,0.1,1.4,0.2,2.1,0.2
				c1.2,0.1,2.3-0.1,3.4-0.6l1.3,3c-1.4-0.5-2.9-0.7-4.4-0.4c-1.1,0.2-2.2,0.6-3.3,1c-0.1,0-0.2,0.2-0.4,0.3
				c0.1,0.1,0.2,0.3,0.4,0.4c0.7,0.3,1.4,0.6,2.1,0.7c0.7,0.1,1.4,0.2,2.1,0.1c1.2,0,2.4-0.3,3.5-0.8c0.1-0.1,0.3-0.2,0.4-0.2
				l2.5,4.2c-0.4-0.1-0.8-0.3-1.3-0.5c-1.9-0.6-3.8-0.6-5.8-0.4c-0.7,0.1-1.4,0.2-2.1,0.3c-0.3,0.1-0.4,0.2-0.2,0.4
				c0.6,0.6,1.3,1.2,2.1,1.5c1.4,0.5,2.8,0.8,4.3,0.8c1.2,0.1,2.5-0.3,3.5-0.9c0.1,0,0.2,0,0.2,0c0.1,0,0.2,0,0.2,0.1
				c0.8,0.9,1.6,1.8,2.4,2.8l-0.7-0.2c-0.8-0.3-1.7-0.5-2.6-0.5c-1.7,0-3.4,0.3-4.9,1c-0.4,0.2-0.9,0.3-1.3,0.5
				c-0.1,0-0.2,0.1-0.3,0.2c0.1,0.1,0.1,0.3,0.2,0.3c0.8,0.3,1.6,0.7,2.4,0.8c1.8,0.2,3.6,0.5,5.4,0.1c0.9-0.2,1.9-0.3,2.6-1
				c0.1,0,0.1-0.1,0.2-0.1c0.1,0.2,0.3,0.3,0.4,0.4c0.8,0.6,1.6,1.1,2.5,1.6L19.7,31.1C19.7,31.2,19.7,31.1,19.7,31.1z M9.6,6
				c-0.4,1.7-0.7,3.5-2.1,4.7C8,9.1,8.8,7.5,9.6,6L9.6,6z M9.2,5.9C8.5,7.5,7.7,9.3,7,11.1C7,9,8.1,7.3,9.2,5.9L9.2,5.9z M1.3,10.2
				c1.4-0.2,2.8,0,4.1,0.6L1.3,10.2L1.3,10.2z M0.8,10.5l5,0.6C4.6,11.8,1.6,11.4,0.8,10.5z M6.3,7.9c-0.7-2.6,0-6,1.5-7.4
				C6.8,2.9,6.7,5.4,6.3,7.9z M7.8,1.3c0.3,0.9-0.4,5.5-1.2,6.9C6.8,5.8,7,3.5,7.8,1.3L7.8,1.3z M6.4,14.4c0.3,0.1,0.6,0.3,0.8,0.5
				l0,0.1c-1.9-0.3-3.8-0.4-5.8-0.3C3,14.3,4.7,13.7,6.4,14.4z M1.3,15.2c0.6-0.3,5-0.1,6.1,0.2C6.2,16.1,2.2,15.9,1.3,15.2
				L1.3,15.2z M8.2,14.8c0.7-2.1,1.6-4.2,2.7-6.1C10.4,10.9,9.9,13.1,8.2,14.8L8.2,14.8z M10.8,8L8,14.1C7.9,11.6,9.5,9.8,10.8,8
				L10.8,8z M1.3,19.6c2.3-1.2,6-1.7,7.7-0.5c-0.1,0-0.2,0-0.4,0c-1.3-0.2-2.6,0-3.9,0.1c-1,0.1-1.9,0.3-2.9,0.4
				C1.7,19.6,1.5,19.6,1.3,19.6L1.3,19.6z M2.2,19.8c2.3-0.3,4.6-0.9,7-0.5C8.2,20.3,4.4,20.9,2.2,19.8z M12.5,11.8
				c0,0.1,0,0.2,0,0.4c-0.2,1-0.4,2-0.6,3c-0.3,0.9-0.6,1.8-1,2.7c-0.2,0.4-0.5,0.7-0.7,1C10,18.9,9.9,19,9.9,19.1
				c0-0.1-0.1-0.3-0.1-0.4c0.6-1.6,1.2-3.3,1.8-4.9C11.9,13.1,12.1,12.5,12.5,11.8L12.5,11.8z M11.8,12.3c-0.8,2-1.5,4-2.3,6.1
				C9.3,15.9,10.4,14,11.8,12.3z M11.6,24.1l-7.8-0.6C5.3,23,9.8,22.9,11.6,24.1z M10.5,25.6c-2.2,0.4-4.4,0-6.4-1.1
				c-0.3-0.2-0.6-0.4-0.8-0.7l0-0.1c3,0.2,6,0.5,9,0.7c0.1,0,0.1,0.1,0.2,0.2C12,25.2,11.3,25.5,10.5,25.6L10.5,25.6z M15.7,28.4
				c-2.8,0.2-5.5,0.1-8.3,0.1C10.2,27.3,12.9,27.1,15.7,28.4z M15.5,29.2c-1.3,0.5-2.7,0.7-4.1,0.6c-0.6,0-1.2-0.1-1.8-0.1
				c-1.1,0-2.1-0.3-3.1-0.8c3.2-0.3,6.4,0.1,9.6-0.3c0,0,0,0.1,0,0.1C15.9,28.9,15.7,29.1,15.5,29.2L15.5,29.2z"/>
			<path class="st2" d="M14.8,8c-0.3,0.8-0.9,1.1-1.5,0.8c-0.3-0.1-0.6-0.3-0.7-0.6c-0.1-0.3-0.2-0.6-0.1-0.9
				c0.2-0.6,1.1-1.1,1.7-0.8c0.3,0.1,0.5,0.4,0.6,0.7C14.9,7.3,14.9,7.7,14.8,8z M14.5,7.8c0.1-0.2,0.1-0.5,0-0.7
				C14.4,7,14.2,6.8,14,6.7c-0.3-0.1-0.5,0-0.8,0.1c-0.2,0.1-0.4,0.3-0.5,0.5c0,0.1-0.1,0.2-0.1,0.4c0,0.1,0,0.2,0.1,0.4
				c0.1,0.1,0.1,0.2,0.2,0.3c0.1,0.1,0.2,0.1,0.3,0.2C13.8,8.7,14.2,8.4,14.5,7.8z"/>
			<path class="st2" d="M4.2,7.1c0.1,0,0.2,0.1,0.3,0.1c0.1,0.1,0.2,0.2,0.2,0.2c0.1,0.1,0.1,0.2,0.1,0.3c0,0.1,0,0.2,0,0.3
				c0,0.1-0.1,0.2-0.2,0.3C4.5,8.6,4.4,8.6,4.2,8.7C4.1,8.8,4,8.8,3.9,8.8c-0.1,0-0.3,0-0.4-0.1C3.3,8.6,3.1,8.5,3.1,8.3
				C3,8.1,3,7.8,3.1,7.7c0-0.1,0.1-0.2,0.2-0.3c0.1-0.1,0.2-0.2,0.3-0.2C3.6,7.1,3.8,7,3.9,7C4,7,4.1,7.1,4.2,7.1z M4.1,7.4
				c-0.1,0-0.2,0-0.2,0c-0.1,0-0.2,0-0.2,0.1c-0.1,0-0.1,0.1-0.2,0.1C3.4,7.6,3.3,7.7,3.3,7.7C3.3,7.9,3.2,8,3.3,8.2
				c0,0.1,0.1,0.3,0.3,0.3c0.2,0.1,0.4,0.1,0.6,0c0.2-0.1,0.3-0.2,0.4-0.4c0-0.1,0-0.1,0-0.2s0-0.1-0.1-0.2c0-0.1-0.1-0.1-0.1-0.2
				C4.2,7.4,4.2,7.4,4.1,7.4L4.1,7.4z"/>
			<path class="st2" d="M11.9,5c0.2-0.4,0.5-0.6,0.7-0.5c0.2,0.1,0.3,0.2,0.4,0.4c0.1,0.2,0.1,0.4,0,0.5c-0.1,0.1-0.2,0.2-0.4,0.3
				c-0.2,0-0.3,0-0.5,0c-0.1,0-0.1-0.1-0.2-0.1c-0.1,0-0.1-0.1-0.1-0.2c0-0.1,0-0.1,0-0.2C11.8,5.1,11.9,5.1,11.9,5z"/>
			<path class="st2" d="M3.8,5.3c0.1,0,0.1,0.1,0.2,0.1C4,5.4,4,5.5,4.1,5.6c0,0.1,0,0.1,0,0.2S4.1,6,4,6C4,6.2,3.9,6.3,3.7,6.3
				c-0.1,0.1-0.3,0.1-0.4,0C3,6.3,3,6,3.1,5.6C3.2,5.3,3.5,5.2,3.8,5.3z"/>
			<path class="st2" d="M1.4,6.6c0.1-0.4,0.3-0.4,0.5-0.3c0.2,0.1,0.2,0.3,0.3,0.4C2,6.8,1.8,6.9,1.6,6.9C1.5,6.9,1.4,6.7,1.4,6.6z"
				/>
			<path class="st2" d="M14.1,5.1C14,4.8,13.9,4.6,14,4.6c0.1-0.1,0.3-0.3,0.5-0.4c0.1,0.2,0.1,0.4,0.1,0.6
				C14.6,4.9,14.3,4.9,14.1,5.1z"/>
			<path class="st2" d="M20.2,16.5c3.1,0.4,3.9,1.9,3.9,3.5c0,2.2-1.7,3.7-4.6,3.7c-0.6,0-1.7-0.1-3.3-0.1c-0.9,0-1.9,0-2.4,0.1
				v-0.4c1.3-0.1,1.6-0.3,1.6-1.7v-9.6c0-1.4-0.3-1.6-1.6-1.7V10c0.5,0,1.5,0.1,2.4,0.1c1.2,0,2.5,0,2.9,0c2.7,0,4.1,1.2,4.1,3
				C23.2,14.4,22.4,15.8,20.2,16.5L20.2,16.5z M17.2,12.1v4.4h1.3c2.3,0,2.8-1.5,2.8-3.2c0-1.9-0.8-2.9-2.7-2.9
				C17.4,10.4,17.2,10.7,17.2,12.1z M22.2,19.9c0-2-1-3.1-3.4-3.1h-1.6v4.9c0,1.3,0.3,1.6,1.5,1.6C21.2,23.3,22.2,22.1,22.2,19.9z"
				/>
			<path class="st2" d="M34.7,18.7c0,3.7-1.9,5.2-4.4,5.2s-4.4-1.5-4.4-5.2c0-3.7,1.9-5.3,4.4-5.3S34.7,15,34.7,18.7z M27.8,18.7
				c0,3.5,1,4.9,2.5,4.9c1.5,0,2.5-1.4,2.5-4.9c0-3.5-1-4.9-2.5-4.9S27.8,15.3,27.8,18.7z"/>
			<path class="st2" d="M42.1,13.8v0.4h-2.9v7.5c0,1.2,0.5,1.6,1.2,1.6c0.8,0,1.3-0.6,1.7-2.1l0.4,0.1c-0.3,1.5-0.9,2.7-2.5,2.7
				c-0.9,0-1.4-0.2-1.8-0.6c-0.6-0.6-0.7-1.3-0.7-2.7v-6.5h-1.9v-0.4h1.9v-3c0.6,0,1.2-0.1,1.7-0.3v3.2L42.1,13.8z"/>
			<path class="st2" d="M49.6,14.2c0.6,0.6,0.8,1.3,0.8,2.7v5.4c0,0.6,0.2,0.9,0.6,0.9c0.3,0,0.6-0.2,0.9-0.4l0.2,0.3
				c-0.5,0.4-1.1,0.7-1.8,0.7c-1.3,0-1.7-0.8-1.7-1.7c-0.3,0.5-0.7,1-1.3,1.3c-0.5,0.3-1.1,0.5-1.7,0.5c-1.3,0-2.5-0.7-2.5-2.2
				s1.2-2.2,3.1-3c1.3-0.5,2.3-0.9,2.3-1.6v-1.2c0-1.6-0.8-1.9-1.8-1.9c-0.7,0-1.5,0.1-1.9,0.7c0.3,0.1,0.5,0.2,0.7,0.4
				c0.2,0.2,0.3,0.5,0.2,0.7c0,0.1,0,0.3-0.1,0.4s-0.1,0.3-0.2,0.4c-0.1,0.1-0.2,0.2-0.4,0.2c-0.1,0-0.3,0.1-0.4,0
				c-0.7,0-1-0.5-1-1.2c0-0.6,0.4-1,0.9-1.4c0.8-0.5,1.8-0.8,2.7-0.7C48.4,13.5,49.2,13.8,49.6,14.2z M48.6,17.8
				c-0.2,0.3-0.6,0.5-1.9,1.1c-0.8,0.4-1.9,1-1.9,2.5c0,1.2,0.7,1.7,1.5,1.7c0.8,0,1.5-0.4,2.2-1.5L48.6,17.8z"/>
			<path class="st2" d="M61.2,14.2c0.5,0.5,0.7,1.2,0.7,2.5v5.2c0,1.1,0.4,1.4,1.5,1.4v0.4c-0.4,0-1.5-0.1-2.3-0.1
				c-0.8,0-1.8,0.1-2.2,0.1v-0.4c0.9,0,1.3-0.3,1.3-1.4v-5.6c0-1.2-0.2-2.2-1.6-2.2c-1.6,0-2.7,1.5-2.7,3.5v4.3
				c0,1.1,0.3,1.4,1.3,1.4v0.4c-0.4,0-1.3-0.1-2.2-0.1s-1.9,0.1-2.3,0.1v-0.4c1.1,0,1.5-0.3,1.5-1.4v-6c0-1.2-0.3-1.7-1.5-1.7v-0.4
				c0.4,0,0.8,0.1,1.2,0.1c0.7,0,1.4-0.1,2-0.3v2.3c0.7-1.7,2-2.3,3.3-2.3C60.1,13.5,60.7,13.7,61.2,14.2z"/>
			<path class="st2" d="M67.4,21.9c0,1.1,0.4,1.4,1.5,1.4v0.4c-0.4,0-1.5-0.1-2.3-0.1c-0.9,0-1.9,0.1-2.3,0.1v-0.4
				c1.1,0,1.5-0.3,1.5-1.4v-6c0-1.2-0.3-1.7-1.5-1.7v-0.4c0.4,0,0.8,0.1,1.2,0.1c0.7,0,1.4-0.1,2-0.3V21.9z M67.6,10.1
				c0,0.2-0.1,0.5-0.2,0.7c-0.1,0.2-0.3,0.4-0.6,0.5s-0.5,0.1-0.7,0.1c-0.2,0-0.5-0.2-0.6-0.3c-0.2-0.2-0.3-0.4-0.3-0.6
				c0-0.2,0-0.5,0.1-0.7c0.1-0.2,0.3-0.4,0.5-0.6c0.2-0.1,0.4-0.2,0.7-0.2c0.3,0,0.6,0.1,0.9,0.4C67.5,9.5,67.6,9.8,67.6,10.1z"/>
			<path class="st2" d="M78.4,22.3c0.4,0.6,0.8,0.9,1.3,1v0.4c-0.3,0-1-0.1-1.6-0.1c-0.8,0-1.7,0.1-2.1,0.1v-0.4
				c0.4,0,0.6-0.1,0.6-0.4c0-0.1,0-0.2-0.1-0.3l-2.2-3.2c-0.5-0.7-0.8-0.8-1.5-0.8v3.4c0,1.1,0.3,1.4,1.3,1.4v0.4
				c-0.4,0-1.3-0.1-2.1-0.1c-0.9,0-1.9,0.1-2.3,0.1v-0.4c1.1,0,1.5-0.3,1.5-1.4v-11c0-1.2-0.3-1.7-1.5-1.7V8.8
				c0.4,0,0.8,0.1,1.2,0.1c0.7,0,1.4-0.1,2-0.3v9.6c0.6-0.1,1.2-0.3,1.7-0.8l1.4-1.5c0.4-0.5,0.6-0.8,0.6-1.1c0-0.5-0.6-0.7-1.4-0.7
				v-0.4c0.7,0,1.6,0.1,2.2,0.1c0.6,0,1.3,0,1.7-0.1v0.4c-0.7,0.1-1.3,0.4-1.7,0.9l-2.3,2.5L78.4,22.3z"/>
			<path class="st2" d="M86.9,14.2c0.6,0.6,0.8,1.3,0.8,2.7v5.4c0,0.6,0.2,0.9,0.6,0.9c0.3,0,0.6-0.2,0.9-0.4l0.2,0.3
				c-0.5,0.4-1.1,0.7-1.8,0.7c-1.3,0-1.7-0.8-1.7-1.7c-0.3,0.5-0.7,1-1.3,1.3c-0.5,0.3-1.1,0.5-1.7,0.4c-1.3,0-2.5-0.7-2.5-2.2
				s1.2-2.2,3.1-3c1.3-0.5,2.3-0.9,2.3-1.6v-1.2c0-1.6-0.8-1.9-1.8-1.9c-0.7,0-1.5,0.1-1.9,0.7c0.3,0.1,0.5,0.2,0.7,0.4
				c0.2,0.2,0.3,0.5,0.2,0.7c0,0.1,0,0.3-0.1,0.4c-0.1,0.1-0.1,0.3-0.2,0.4c-0.1,0.1-0.2,0.2-0.4,0.2c-0.1,0-0.3,0.1-0.4,0
				c-0.7,0-1-0.5-1-1.2c0-0.6,0.4-1,0.9-1.4c0.8-0.5,1.8-0.7,2.7-0.7C85.6,13.5,86.4,13.8,86.9,14.2z M85.9,17.8
				c-0.2,0.3-0.6,0.5-1.8,1.1c-0.8,0.4-1.9,1-1.9,2.5c0,1.2,0.7,1.7,1.5,1.7c0.8,0,1.5-0.4,2.2-1.5L85.9,17.8z"/>
			<path class="st2" d="M32.6,30.6v1.3h-0.3v-1h-3.4v-3.7h0.4v3.4h2.4v-3.4H32v3.4L32.6,30.6z"/>
			<path class="st2" d="M36.6,29.9c0,0.6-0.4,1-1.4,1h-1.6v-3.7h1.6c0.8,0,1.3,0.3,1.3,0.9c0,0.2-0.1,0.4-0.2,0.5
				C36.2,28.8,36,29,35.8,29c0.1,0,0.2,0,0.3,0.1c0.1,0,0.2,0.1,0.3,0.2c0.1,0.1,0.1,0.2,0.2,0.3S36.6,29.8,36.6,29.9z M34,28.9h1.2
				c0.6,0,1-0.2,1-0.7c0-0.5-0.4-0.7-1-0.7H34V28.9z M36.3,29.9c0-0.5-0.3-0.7-1-0.7H34v1.4h1.2C35.9,30.6,36.3,30.4,36.3,29.9z"/>
			<path class="st2" d="M41,29.1h-3.2c0,0.3,0.1,0.6,0.3,0.8c0.2,0.2,0.4,0.4,0.7,0.5c0.3,0.1,0.6,0.1,0.9,0
				c0.3-0.1,0.6-0.2,0.8-0.5l0.2,0.2c-0.2,0.2-0.4,0.4-0.6,0.5c-0.2,0.1-0.5,0.2-0.8,0.1c-0.2,0-0.5,0-0.7-0.1
				c-0.2-0.1-0.4-0.2-0.6-0.4c-0.2-0.2-0.3-0.4-0.4-0.6c-0.1-0.2-0.1-0.5-0.1-0.7c0-0.2,0-0.5,0.1-0.7c0.1-0.2,0.2-0.4,0.4-0.6
				c0.2-0.2,0.4-0.3,0.6-0.4c0.2-0.1,0.5-0.1,0.7-0.1c0.2,0,0.5,0,0.7,0.1c0.2,0.1,0.4,0.2,0.6,0.4c0.2,0.2,0.3,0.4,0.4,0.6
				C41,28.6,41.1,28.8,41,29.1C41,29.1,41,29.1,41,29.1z M37.9,28.9h2.8c0-0.4-0.1-0.7-0.4-1c-0.3-0.3-0.6-0.4-1-0.4
				c-0.4,0-0.7,0.1-1,0.4C38,28.1,37.9,28.5,37.9,28.9z"/>
			<path class="st2" d="M44.5,27.5H43v3.4h-0.4v-3.4h-1.4v-0.3h3.2V27.5z"/>
			<path class="st2" d="M48.1,29.7c0,0.8-0.5,1.2-1.5,1.2h-1.4v-3.7h0.4v1.3h1.1C47.6,28.6,48.1,29,48.1,29.7z M47.7,29.7
				c0-0.6-0.4-0.9-1.1-0.9h-1v1.8h1C47.3,30.6,47.7,30.3,47.7,29.7z M48.8,27.2h0.4v3.7h-0.4V27.2z"/>
			<path class="st2" d="M55.4,29.9c0,0.6-0.5,1-1.4,1h-1.6v-3.7H54c0.8,0,1.3,0.3,1.3,0.9c0,0.2-0.1,0.4-0.2,0.5
				C55,28.8,54.8,29,54.6,29c0.1,0,0.2,0,0.3,0.1c0.1,0,0.2,0.1,0.3,0.2c0.1,0.1,0.1,0.2,0.2,0.3S55.4,29.8,55.4,29.9z M52.8,28.9
				H54c0.6,0,1-0.2,1-0.7c0-0.5-0.4-0.7-1-0.7h-1.2V28.9z M55.1,29.9c0-0.5-0.3-0.7-1-0.7h-1.3v1.4H54
				C54.7,30.6,55.1,30.4,55.1,29.9z"/>
			<path class="st2" d="M62.7,26v4.9h-0.4v-4.6H59v4.6h-0.4V26H62.7z"/>
			<path class="st2" d="M67.4,29.1h-3.2c0,0.3,0.1,0.6,0.3,0.8c0.2,0.2,0.4,0.4,0.7,0.5c0.3,0.1,0.6,0.1,0.9,0
				c0.3-0.1,0.6-0.2,0.8-0.5l0.2,0.2c-0.2,0.2-0.4,0.4-0.6,0.5c-0.2,0.1-0.5,0.2-0.8,0.1c-0.3,0-0.5,0-0.7-0.1s-0.4-0.2-0.6-0.4
				c-0.2-0.2-0.3-0.4-0.4-0.6c-0.1-0.2-0.1-0.5-0.1-0.7c0-0.2,0-0.5,0.1-0.7c0.1-0.2,0.2-0.4,0.4-0.6c0.2-0.2,0.4-0.3,0.6-0.4
				c0.2-0.1,0.5-0.1,0.7-0.1c0.2,0,0.5,0,0.7,0.1c0.2,0.1,0.4,0.2,0.6,0.4c0.2,0.2,0.3,0.4,0.4,0.6C67.4,28.6,67.5,28.8,67.4,29.1
				C67.5,29.1,67.4,29.1,67.4,29.1z M64.3,28.9h2.8c0-0.4-0.1-0.7-0.4-1c-0.3-0.3-0.6-0.4-1-0.4c-0.4,0-0.7,0.1-1,0.4
				C64.4,28.1,64.3,28.5,64.3,28.9z"/>
			<path class="st2" d="M70.9,27.5h-1.4v3.4h-0.4v-3.4h-1.5v-0.3h3.2L70.9,27.5z"/>
			<path class="st2" d="M74.6,29.1h-3.2c0,0.3,0.1,0.6,0.3,0.8c0.2,0.2,0.4,0.4,0.7,0.5c0.3,0.1,0.6,0.1,0.9,0
				c0.3-0.1,0.6-0.2,0.8-0.5l0.2,0.2c-0.2,0.2-0.4,0.4-0.6,0.5c-0.2,0.1-0.5,0.2-0.8,0.1c-0.2,0-0.5,0-0.7-0.1
				c-0.2-0.1-0.4-0.2-0.6-0.4c-0.2-0.2-0.3-0.4-0.4-0.6c-0.1-0.2-0.1-0.5-0.1-0.7c0-0.2,0-0.5,0.1-0.7c0.1-0.2,0.2-0.4,0.4-0.6
				c0.2-0.2,0.4-0.3,0.6-0.4c0.2-0.1,0.5-0.1,0.7-0.1c0.2,0,0.5,0,0.7,0.1c0.2,0.1,0.4,0.2,0.6,0.4c0.2,0.2,0.3,0.4,0.4,0.6
				C74.6,28.6,74.6,28.8,74.6,29.1C74.6,29.1,74.6,29.1,74.6,29.1z M71.5,28.9h2.8c0-0.4-0.2-0.7-0.4-0.9c-0.3-0.2-0.6-0.4-1-0.4
				c-0.4,0-0.7,0.1-1,0.4C71.6,28.2,71.5,28.5,71.5,28.9z"/>
			<path class="st2" d="M79.4,29c0,0.2,0,0.5-0.1,0.7c-0.1,0.2-0.2,0.4-0.4,0.6c-0.2,0.2-0.4,0.3-0.6,0.4c-0.2,0.1-0.5,0.1-0.7,0.1
				c-0.3,0-0.6-0.1-0.9-0.2c-0.3-0.2-0.5-0.4-0.6-0.6v2.2h-0.4v-5h0.3v0.9c0.1-0.3,0.4-0.5,0.6-0.7c0.3-0.2,0.6-0.2,0.9-0.2
				c0.2,0,0.5,0,0.7,0.1s0.4,0.2,0.6,0.4c0.2,0.2,0.3,0.4,0.4,0.6C79.4,28.6,79.4,28.8,79.4,29z M79.1,29c0-0.3-0.1-0.6-0.3-0.8
				c-0.2-0.2-0.4-0.4-0.7-0.5c-0.3-0.1-0.6-0.1-0.9-0.1c-0.3,0.1-0.5,0.2-0.8,0.4c-0.2,0.2-0.3,0.5-0.4,0.8s0,0.6,0.1,0.9
				c0.1,0.3,0.3,0.5,0.6,0.7c0.2,0.2,0.5,0.2,0.8,0.2c0.2,0,0.4,0,0.6-0.1c0.2-0.1,0.4-0.2,0.5-0.3c0.1-0.1,0.2-0.3,0.3-0.5
				C79.1,29.4,79.1,29.2,79.1,29z"/>
			<path class="st2" d="M84,29.1c0,0.2,0,0.5-0.1,0.7c-0.1,0.2-0.2,0.4-0.4,0.6s-0.4,0.3-0.6,0.4c-0.2,0.1-0.5,0.1-0.7,0.1
				c-1.2,0-1.9-0.9-1.9-2.4c0-1.7,0.6-2.4,1.8-2.7l1.6-0.4l0.1,0.3l-1.6,0.4c-1.1,0.3-1.6,0.8-1.6,2.2c0.1-0.3,0.3-0.6,0.6-0.8
				c0.3-0.2,0.6-0.3,1-0.3c0.2,0,0.5,0,0.7,0.1c0.2,0.1,0.4,0.2,0.6,0.4c0.2,0.2,0.3,0.4,0.4,0.6C84,28.6,84.1,28.8,84,29.1z
				 M83.7,29.1c0-0.2,0-0.4-0.1-0.6c-0.1-0.2-0.2-0.4-0.3-0.5c-0.1-0.1-0.3-0.3-0.5-0.3c-0.2-0.1-0.4-0.1-0.6-0.1
				c-0.2,0-0.4,0-0.6,0.1c-0.2,0.1-0.3,0.2-0.5,0.3c-0.1,0.1-0.2,0.3-0.3,0.5c-0.1,0.2-0.1,0.4-0.1,0.6c0,0.2,0,0.4,0.1,0.6
				c0.1,0.2,0.2,0.4,0.3,0.5c0.1,0.1,0.3,0.3,0.5,0.3c0.2,0.1,0.4,0.1,0.6,0.1c0.2,0,0.4,0,0.6-0.1c0.2-0.1,0.3-0.2,0.5-0.3
				c0.1-0.1,0.2-0.3,0.3-0.5S83.7,29.3,83.7,29.1z"/>
			<path class="st2" d="M88.1,27.2l-1.9,4.2c-0.3,0.7-0.7,0.9-1.1,0.9c-0.2,0-0.3,0-0.5-0.1c-0.1-0.1-0.3-0.1-0.4-0.3l0.2-0.3
				c0.1,0.1,0.2,0.2,0.3,0.2c0.1,0,0.2,0.1,0.4,0.1c0.3,0,0.6-0.2,0.8-0.7l0.2-0.4l-1.7-3.7h0.4l1.5,3.3l1.5-3.3L88.1,27.2z"/>
			<path class="st2" d="M92.6,29c0,0.2,0,0.5-0.1,0.7c-0.1,0.2-0.2,0.4-0.4,0.6c-0.2,0.2-0.4,0.3-0.6,0.4c-0.2,0.1-0.5,0.1-0.7,0.1
				c-0.3,0-0.6-0.1-0.9-0.2c-0.3-0.2-0.5-0.4-0.6-0.6v2.2H89v-5h0.3v0.9c0.1-0.3,0.4-0.5,0.6-0.7c0.3-0.2,0.6-0.2,0.9-0.2
				c0.2,0,0.5,0,0.7,0.1c0.2,0.1,0.4,0.2,0.6,0.4c0.2,0.2,0.3,0.4,0.4,0.6C92.6,28.6,92.6,28.8,92.6,29z M92.3,29
				c0-0.3-0.1-0.6-0.3-0.8c-0.2-0.2-0.4-0.4-0.7-0.5c-0.3-0.1-0.6-0.1-0.9-0.1c-0.3,0.1-0.5,0.2-0.8,0.4c-0.2,0.2-0.3,0.5-0.4,0.8
				c-0.1,0.3,0,0.6,0.1,0.9c0.1,0.3,0.3,0.5,0.6,0.7c0.2,0.2,0.5,0.2,0.8,0.2c0.2,0,0.4,0,0.6-0.1c0.2-0.1,0.4-0.2,0.5-0.3
				c0.1-0.1,0.2-0.3,0.3-0.5C92.2,29.4,92.3,29.2,92.3,29z"/>
			<path class="st2" d="M96.3,27.5h-2.2v3.4h-0.4v-3.7h2.5V27.5z"/>
			<path class="st2" d="M100,29.1h-3.2c0,0.3,0.1,0.6,0.3,0.8c0.2,0.2,0.4,0.4,0.7,0.5c0.3,0.1,0.6,0.1,0.9,0
				c0.3-0.1,0.6-0.2,0.8-0.5l0.2,0.2c-0.2,0.2-0.4,0.4-0.6,0.5c-0.2,0.1-0.5,0.2-0.8,0.1c-0.3,0-0.5,0-0.7-0.1
				c-0.2-0.1-0.4-0.2-0.6-0.4c-0.2-0.2-0.3-0.4-0.4-0.6c-0.1-0.2-0.1-0.5-0.1-0.7c0-0.2,0-0.5,0.1-0.7c0.1-0.2,0.2-0.4,0.4-0.6
				c0.2-0.2,0.4-0.3,0.6-0.4c0.2-0.1,0.5-0.1,0.7-0.1c0.2,0,0.5,0,0.7,0.1c0.2,0.1,0.4,0.2,0.6,0.4c0.2,0.2,0.3,0.4,0.4,0.6
				C100,28.6,100,28.8,100,29.1C100,29.1,100,29.1,100,29.1z M96.8,28.9h2.8c0-0.4-0.2-0.7-0.4-0.9c-0.3-0.2-0.6-0.4-1-0.4
				c-0.4,0-0.7,0.1-1,0.4C97,28.2,96.9,28.5,96.8,28.9z"/>
		</g>
	</g>
</g>
</svg>
