<?xml version="1.0" encoding="utf-8"?>
<!-- Generator: Adobe Illustrator 23.0.1, SVG Export Plug-In . SVG Version: 6.00 Build 0)  -->
<svg version="1.1" id="Слой_1" xmlns="http://www.w3.org/2000/svg" xmlns:xlink="http://www.w3.org/1999/xlink" x="0px" y="0px"
	 viewBox="0 0 100.01 32.29" style="enable-background:new 0 0 100.01 32.29;" xml:space="preserve">
<style type="text/css">
	.st0{fill:#FCDCDC;}
	.st1{fill:#AE7C78;}
</style>
<g>
	<path class="st0" d="M9.72,17.19c-2.01,2.55-5.98,2.62-8.22,0.33c-2.13-2.15-1.87-5.57,0.04-7.69c0.93-2.82,5-2.47,7.15-0.75
		C11.18,11.09,11.75,14.61,9.72,17.19z"/>
	<path class="st0" d="M13.51,9.48c-1.97,0-2.78-1.23-2.95-2.72c-0.64-1.87,0.22-4.06,2.31-4.6c0.49-0.12,1.01-0.14,1.51-0.06
		c0.5,0.09,0.98,0.28,1.4,0.56c0.42,0.28,0.78,0.65,1.05,1.09s0.45,0.92,0.52,1.42c0.07,0.54,0.02,1.09-0.15,1.61
		c-0.16,0.52-0.44,1-0.8,1.41c-0.36,0.41-0.81,0.73-1.31,0.96C14.59,9.37,14.05,9.49,13.51,9.48z"/>
	<path class="st1" d="M19.73,31.12l0.12-0.23c-0.83-0.53-1.65-1.06-2.47-1.59c-0.7-0.55-1.35-1.18-1.91-1.87
		c-0.77-0.85-1.54-1.7-2.32-2.55c-0.07-0.07-0.15-0.15-0.16-0.22c-0.77-0.81-1.4-1.73-1.87-2.74c-0.49-0.78-0.94-1.59-1.34-2.42
		c-0.04-0.09,0.05-0.25,0.08-0.37c0.17-0.04,0.33-0.1,0.47-0.18c0.49-0.43,0.85-0.99,1.03-1.61c0.79-2.02,1.47-4.06,1.39-6.27
		c-0.02-0.12-0.05-0.23-0.1-0.34c-0.11,0.06-0.2,0.13-0.29,0.21c-0.52,0.69-1.05,1.38-1.55,2.09c-0.73,1.01-1.24,2.17-1.5,3.39
		C9.21,17,9.2,17.59,9.14,18.18c-0.03-0.05-0.06-0.1-0.09-0.15c-0.31-0.75-0.62-1.5-0.94-2.24C8.07,15.7,8.05,15.6,8.07,15.5
		c0.02-0.1,0.07-0.18,0.15-0.24c0.38-0.35,0.72-0.74,1.02-1.16c0.81-1.34,1.4-2.8,1.75-4.32c0.12-0.55,0.21-1.1,0.24-1.66
		c0-0.17-0.12-0.36-0.18-0.53c-0.18,0.07-0.34,0.16-0.49,0.28c-0.4,0.49-0.79,0.99-1.15,1.5c-0.75,0.94-1.28,2.04-1.55,3.21
		c-0.1,0.57-0.15,1.15-0.22,1.72H7.6l-0.68-2.71l0.19,0.29c0.08-0.15,0.17-0.3,0.27-0.44c0.44-0.56,1.02-1.05,1.32-1.67
		c0.45-0.97,0.83-1.97,1.12-2.99C9.94,6.29,10,5.8,10,5.31c0-0.12-0.09-0.25-0.13-0.37c-0.1,0.04-0.24,0.06-0.3,0.13
		C8.84,6.07,8.08,7.05,7.42,8.1c-0.29,0.56-0.52,1.15-0.7,1.75C6.62,9.49,6.64,9.1,6.79,8.76C7.4,7.21,7.81,5.58,8.01,3.93
		c0.11-1.17,0.16-2.34,0.15-3.51C8.14,0.27,8.1,0.13,8.03,0C7.9,0.07,7.72,0.1,7.63,0.21C6.87,1.1,6.32,2.14,6.02,3.27
		c-0.4,1.75-0.22,3.5,0.11,5.23c0.15,0.8,0.32,1.59,0.48,2.39c-0.8-0.3-1.5-0.61-2.21-0.83C3.14,9.72,1.83,9.68,0.56,9.94
		C0.4,10,0.25,10.08,0.12,10.19c0.08,0.16,0.18,0.31,0.3,0.44c0.86,0.7,1.94,1.09,3.05,1.1c0.88,0.02,1.76-0.08,2.62-0.31
		c0.46-0.13,0.52-0.08,0.63,0.37c0.13,0.55,0.25,1.1,0.4,1.64c0.1,0.4,0.22,0.81,0.35,1.26c-0.11-0.06-0.17-0.09-0.22-0.12
		c-0.85-0.61-1.9-0.87-2.93-0.75c-1.08,0.18-2.15,0.47-3.22,0.72c-0.17,0.04-0.34,0.09-0.5,0.17c-0.05,0.02-0.1,0.05-0.13,0.1
		c-0.03,0.05-0.05,0.1-0.05,0.16s0.02,0.11,0.05,0.16c0.03,0.05,0.08,0.08,0.13,0.1c0.53,0.27,1.09,0.49,1.66,0.65
		c0.69,0.12,1.39,0.2,2.09,0.24c1.15,0.11,2.31-0.09,3.36-0.58l1.27,3.03c-1.39-0.53-2.9-0.66-4.36-0.37
		c-1.12,0.24-2.24,0.64-3.33,0.98c-0.14,0.04-0.25,0.19-0.37,0.28c0.12,0.12,0.21,0.31,0.35,0.37c0.69,0.31,1.4,0.56,2.12,0.75
		c0.69,0.1,1.4,0.15,2.1,0.15C6.7,20.71,7.9,20.43,9,19.87c0.15-0.07,0.29-0.16,0.43-0.25l2.48,4.19c-0.37-0.15-0.81-0.34-1.25-0.47
		c-1.87-0.58-3.82-0.58-5.75-0.37c-0.71,0.07-1.41,0.22-2.12,0.35c-0.3,0.06-0.37,0.21-0.18,0.4c0.6,0.64,1.33,1.16,2.13,1.52
		c1.35,0.55,2.8,0.83,4.26,0.83c1.24,0.07,2.48-0.26,3.52-0.94c0.08-0.03,0.16-0.04,0.25-0.04c0.08,0.01,0.16,0.04,0.23,0.09
		c0.81,0.89,1.59,1.81,2.42,2.77l-0.66-0.22c-0.84-0.3-1.72-0.48-2.62-0.53c-1.68-0.04-3.35,0.3-4.89,0.99
		c-0.42,0.17-0.86,0.31-1.29,0.46c-0.1,0.04-0.19,0.09-0.28,0.15c0.07,0.11,0.13,0.28,0.22,0.31c0.8,0.28,1.58,0.68,2.4,0.78
		c1.78,0.22,3.58,0.46,5.39,0.12c0.92-0.17,1.85-0.33,2.6-0.97c0.06-0.04,0.12-0.08,0.18-0.11c0.13,0.15,0.28,0.29,0.44,0.42
		c0.81,0.55,1.63,1.12,2.46,1.63l0.32,0.2C19.71,31.17,19.72,31.15,19.73,31.12z M9.64,6.05C9.26,7.77,8.89,9.5,7.5,10.78
		C8.04,9.13,8.76,7.54,9.64,6.05L9.64,6.05z M9.22,5.92c-0.7,1.61-1.5,3.41-2.24,5.19C6.96,8.97,8.05,7.32,9.22,5.92L9.22,5.92z
		 M1.25,10.16c1.4-0.19,2.82,0.01,4.11,0.56l-4.11-0.47V10.16z M0.79,10.48l5.04,0.61C4.64,11.81,1.6,11.4,0.79,10.48z M6.31,7.89
		c-0.67-2.62,0-6,1.47-7.35C6.83,2.89,6.68,5.39,6.31,7.89z M7.81,1.27C8.14,2.18,7.4,6.74,6.64,8.14C6.85,5.84,6.99,3.52,7.81,1.27
		L7.81,1.27z M6.39,14.45c0.29,0.13,0.56,0.31,0.84,0.47l-0.04,0.13c-1.91-0.26-3.85-0.35-5.78-0.28
		C3.05,14.31,4.68,13.66,6.39,14.45z M1.26,15.19c0.62-0.25,4.99-0.14,6.07,0.16C6.16,16.07,2.18,15.94,1.26,15.19L1.26,15.19z
		 M8.22,14.82c0.71-2.11,1.62-4.16,2.71-6.1c-0.5,2.19-1.05,4.39-2.71,6.09V14.82z M10.84,7.98l-2.81,6.09
		c-0.09-2.49,1.42-4.26,2.81-6.11V7.98z M1.28,19.57c2.32-1.22,6.03-1.66,7.74-0.52c-0.13,0-0.25-0.01-0.37-0.03
		c-1.3-0.24-2.59-0.05-3.88,0.15c-0.96,0.15-1.93,0.29-2.89,0.42c-0.2,0-0.39-0.01-0.59-0.04L1.28,19.57z M2.22,19.81
		c2.31-0.28,4.59-0.92,6.96-0.49C8.18,20.3,4.43,20.93,2.22,19.81z M12.46,11.83c0.01,0.12,0.01,0.23,0,0.35
		c-0.2,1-0.37,2.01-0.64,2.99c-0.27,0.91-0.6,1.8-0.99,2.66c-0.21,0.35-0.46,0.67-0.75,0.96c-0.08,0.1-0.15,0.21-0.22,0.31
		c-0.03-0.15-0.11-0.32-0.06-0.44c0.6-1.64,1.2-3.28,1.82-4.91c0.24-0.65,0.49-1.29,0.75-1.94L12.46,11.83z M11.84,12.26
		c-0.77,2.01-1.53,4.03-2.32,6.1C9.35,15.92,10.38,14.01,11.84,12.26z M11.62,24.1l-7.84-0.55C5.26,22.99,9.82,22.94,11.62,24.1z
		 M10.5,25.6c-2.19,0.37-4.43,0-6.39-1.05c-0.3-0.19-0.59-0.42-0.85-0.66l0.04-0.08c3.01,0.23,6.02,0.46,9.03,0.7
		c0.06,0,0.12,0.1,0.22,0.18C11.97,25.17,11.26,25.49,10.5,25.6L10.5,25.6z M15.68,28.41c-2.75,0.19-5.51,0.08-8.33,0.07
		C10.15,27.25,12.91,27.11,15.68,28.41z M15.47,29.19c-1.32,0.49-2.73,0.7-4.14,0.63c-0.6-0.04-1.19-0.1-1.79-0.11
		c-1.06-0.04-2.1-0.3-3.06-0.77c3.2-0.32,6.42,0.07,9.62-0.28c0,0.04,0.02,0.08,0.03,0.12c-0.2,0.17-0.42,0.31-0.66,0.43V29.19z"/>
	<path class="st1" d="M14.77,7.96c-0.3,0.77-0.88,1.08-1.53,0.82c-0.31-0.11-0.56-0.33-0.71-0.63c-0.14-0.29-0.17-0.63-0.07-0.94
		c0.24-0.61,1.12-1.05,1.71-0.83c0.28,0.14,0.49,0.38,0.6,0.67C14.89,7.35,14.88,7.67,14.77,7.96z M14.48,7.85
		c0.08-0.22,0.07-0.46-0.01-0.68c-0.08-0.22-0.24-0.4-0.45-0.51c-0.26-0.06-0.53-0.03-0.76,0.09c-0.24,0.11-0.43,0.3-0.55,0.54
		c-0.04,0.12-0.06,0.25-0.06,0.37c0.01,0.13,0.04,0.25,0.1,0.36c0.06,0.11,0.13,0.21,0.23,0.3c0.1,0.08,0.21,0.14,0.33,0.18
		C13.8,8.7,14.25,8.44,14.48,7.85z"/>
	<path class="st1" d="M4.23,7.1c0.1,0.03,0.2,0.08,0.28,0.15C4.6,7.32,4.67,7.4,4.72,7.5C4.77,7.59,4.8,7.7,4.81,7.8
		c0.01,0.11,0,0.22-0.03,0.32C4.73,8.25,4.66,8.36,4.57,8.46c-0.09,0.1-0.2,0.18-0.32,0.23S3.99,8.78,3.86,8.79
		c-0.13,0-0.27-0.02-0.39-0.07C3.27,8.63,3.13,8.47,3.06,8.27C2.99,8.07,3,7.85,3.09,7.66c0.03-0.11,0.09-0.22,0.17-0.31
		c0.08-0.09,0.17-0.17,0.28-0.22c0.11-0.05,0.22-0.08,0.34-0.09C4,7.04,4.12,7.06,4.23,7.1z M4.12,7.36
		C4.04,7.33,3.96,7.32,3.87,7.32c-0.08,0-0.16,0.02-0.24,0.06c-0.08,0.04-0.14,0.09-0.2,0.15c-0.05,0.06-0.1,0.14-0.12,0.22
		C3.26,7.87,3.25,8.02,3.29,8.16C3.34,8.3,3.43,8.41,3.56,8.48c0.18,0.06,0.38,0.05,0.56-0.03c0.18-0.08,0.32-0.22,0.39-0.4
		c0.02-0.07,0.02-0.14,0.01-0.22S4.49,7.7,4.45,7.63C4.42,7.57,4.37,7.52,4.31,7.47C4.25,7.43,4.18,7.4,4.11,7.38L4.12,7.36z"/>
	<path class="st1" d="M11.91,5.02c0.19-0.43,0.47-0.62,0.75-0.49c0.16,0.09,0.29,0.23,0.36,0.4c0.07,0.17,0.07,0.37,0.01,0.54
		c-0.08,0.14-0.22,0.25-0.38,0.29c-0.16,0.05-0.33,0.03-0.48-0.04c-0.07-0.02-0.13-0.06-0.19-0.11c-0.05-0.05-0.09-0.11-0.12-0.18
		c-0.03-0.07-0.04-0.14-0.03-0.21C11.84,5.15,11.87,5.08,11.91,5.02z"/>
	<path class="st1" d="M3.76,5.27C3.83,5.3,3.89,5.34,3.95,5.39C4,5.45,4.04,5.51,4.07,5.58C4.09,5.65,4.1,5.73,4.1,5.8
		S4.08,5.95,4.04,6.02C3.98,6.16,3.87,6.27,3.73,6.33C3.6,6.4,3.44,6.41,3.29,6.37c-0.25-0.1-0.33-0.4-0.2-0.73
		C3.22,5.32,3.49,5.16,3.76,5.27z"/>
	<path class="st1" d="M1.4,6.59c0.13-0.37,0.34-0.37,0.5-0.27c0.16,0.1,0.18,0.28,0.27,0.43C2,6.85,1.82,6.91,1.62,6.93
		C1.52,6.91,1.45,6.67,1.4,6.59z"/>
	<path class="st1" d="M14.11,5.06c-0.07-0.25-0.18-0.44-0.13-0.5c0.13-0.15,0.29-0.27,0.46-0.37c0.08,0.18,0.12,0.38,0.13,0.58
		C14.58,4.86,14.35,4.92,14.11,5.06z"/>
	<path class="st1" d="M20.23,16.47c3.06,0.41,3.94,1.92,3.94,3.48c0,2.2-1.74,3.74-4.64,3.74c-0.58,0-1.74-0.06-3.32-0.06
		c-0.9,0-1.87,0.02-2.4,0.06v-0.37c1.31-0.06,1.57-0.25,1.57-1.66v-9.59c0-1.41-0.25-1.6-1.57-1.66v-0.37
		c0.54,0.04,1.49,0.06,2.36,0.06c1.22,0,2.45-0.04,2.92-0.04c2.71-0.01,4.09,1.24,4.09,3.03c0,1.37-0.77,2.7-2.93,3.36L20.23,16.47z
		 M17.17,12.06v4.38h1.3c2.27,0,2.83-1.5,2.83-3.17c0-1.89-0.77-2.87-2.71-2.87C17.43,10.41,17.17,10.73,17.17,12.06z M22.24,19.87
		c0-1.96-0.99-3.1-3.44-3.1h-1.62v4.89c0,1.35,0.25,1.6,1.45,1.6C21.15,23.25,22.24,22.05,22.24,19.87z"/>
	<path class="st1" d="M34.72,18.73c0,3.71-1.93,5.23-4.38,5.23s-4.39-1.54-4.39-5.23c0-3.69,1.93-5.26,4.39-5.26
		S34.72,15.02,34.72,18.73z M27.82,18.73c0,3.45,1.05,4.86,2.51,4.86c1.47,0,2.51-1.39,2.51-4.86c0-3.46-1.04-4.86-2.51-4.86
		S27.82,15.27,27.82,18.73z"/>
	<path class="st1" d="M42.15,13.76v0.37h-2.86v7.48c0,1.21,0.46,1.64,1.24,1.64c0.77,0,1.34-0.56,1.75-2.07l0.37,0.1
		c-0.27,1.49-0.95,2.67-2.51,2.67c-0.89,0-1.41-0.22-1.83-0.64c-0.56-0.58-0.75-1.33-0.75-2.71v-6.45h-1.87v-0.37h1.87v-2.95
		c0.59,0,1.17-0.09,1.73-0.27v3.23L42.15,13.76z"/>
	<path class="st1" d="M49.61,14.2c0.61,0.62,0.77,1.34,0.77,2.71v5.37c0,0.62,0.15,0.92,0.59,0.92c0.33-0.02,0.64-0.16,0.87-0.4
		l0.22,0.33c-0.48,0.45-1.11,0.7-1.76,0.71c-1.35,0-1.66-0.81-1.66-1.72c-0.3,0.53-0.73,0.96-1.25,1.27
		c-0.52,0.3-1.12,0.46-1.72,0.45c-1.29,0-2.46-0.65-2.46-2.16s1.18-2.21,3.11-3.02c1.29-0.53,2.31-0.87,2.31-1.64v-1.21
		c0-1.62-0.79-1.94-1.79-1.94c-0.66,0-1.47,0.13-1.91,0.69c0.26,0.07,0.49,0.22,0.66,0.43c0.16,0.21,0.25,0.48,0.25,0.75
		c0.01,0.15-0.02,0.29-0.08,0.43c-0.06,0.13-0.14,0.26-0.25,0.35c-0.11,0.1-0.23,0.17-0.37,0.22c-0.14,0.05-0.28,0.06-0.43,0.05
		c-0.66,0-1.05-0.5-1.05-1.2c0-0.56,0.37-1.01,0.9-1.38c0.81-0.5,1.76-0.75,2.71-0.73C48.36,13.48,49.17,13.76,49.61,14.2z
		 M48.64,17.79c-0.21,0.31-0.64,0.51-1.85,1.12c-0.85,0.41-1.87,0.96-1.87,2.46c0,1.16,0.66,1.7,1.55,1.7
		c0.77,0,1.52-0.41,2.18-1.46L48.64,17.79z"/>
	<path class="st1" d="M61.19,14.2c0.48,0.53,0.67,1.21,0.67,2.54v5.16c0,1.08,0.41,1.39,1.47,1.39v0.41c-0.44,0-1.47-0.08-2.32-0.08
		c-0.85,0-1.75,0.06-2.16,0.08v-0.41c0.93,0,1.27-0.31,1.27-1.39v-5.58c0-1.2-0.17-2.24-1.57-2.24c-1.62,0-2.71,1.55-2.71,3.52v4.31
		c0,1.08,0.35,1.39,1.28,1.39v0.41c-0.4,0-1.32-0.08-2.17-0.08c-0.85,0-1.87,0.06-2.32,0.08v-0.41c1.07,0,1.47-0.31,1.47-1.39v-6.05
		c0-1.16-0.35-1.71-1.47-1.71v-0.4c0.4,0.04,0.81,0.06,1.2,0.06c0.68,0.02,1.36-0.07,2.01-0.27v2.28c0.68-1.74,1.97-2.33,3.29-2.33
		C60.12,13.48,60.74,13.74,61.19,14.2z"/>
	<path class="st1" d="M67.39,21.9c0,1.08,0.4,1.39,1.47,1.39v0.41c-0.44,0-1.45-0.08-2.34-0.08c-0.89,0-1.9,0.06-2.34,0.08v-0.41
		c1.07,0,1.47-0.31,1.47-1.39v-6.05c0-1.16-0.35-1.71-1.47-1.71v-0.4c0.4,0.04,0.81,0.06,1.2,0.06c0.68,0.02,1.36-0.07,2.01-0.27
		V21.9z M67.62,10.15c0,0.24-0.07,0.48-0.21,0.69c-0.14,0.2-0.33,0.36-0.55,0.46s-0.47,0.12-0.72,0.07
		c-0.24-0.05-0.46-0.16-0.63-0.34c-0.17-0.17-0.29-0.39-0.34-0.63c-0.05-0.24-0.02-0.49,0.07-0.72c0.09-0.23,0.25-0.42,0.46-0.56
		c0.2-0.14,0.44-0.21,0.69-0.21c0.33,0,0.64,0.13,0.87,0.36C67.49,9.51,67.62,9.82,67.62,10.15z"/>
	<path class="st1" d="M78.42,22.28c0.44,0.6,0.77,0.93,1.35,1.01v0.41c-0.29,0-0.98-0.08-1.57-0.08c-0.81,0-1.73,0.06-2.14,0.08
		v-0.41c0.37,0,0.59-0.15,0.59-0.37c-0.01-0.11-0.05-0.21-0.12-0.3l-2.22-3.24c-0.47-0.66-0.77-0.82-1.45-0.85v3.36
		c0,1.08,0.35,1.39,1.27,1.39v0.42c-0.4,0-1.33-0.08-2.14-0.08c-0.89,0-1.89,0.06-2.34,0.08v-0.41c1.07,0,1.47-0.31,1.47-1.39V10.87
		c0-1.16-0.35-1.7-1.47-1.7V8.76c0.4,0.04,0.8,0.06,1.2,0.06c0.68,0.02,1.36-0.07,2.01-0.28v9.59c0.63-0.05,1.23-0.34,1.66-0.8
		l1.43-1.5c0.43-0.45,0.61-0.8,0.61-1.07c0-0.47-0.61-0.66-1.42-0.66v-0.37c0.67,0.04,1.62,0.07,2.18,0.07
		c0.64,0,1.29-0.04,1.68-0.07v0.37c-0.67,0.08-1.29,0.4-1.74,0.91l-2.35,2.47L78.42,22.28z"/>
	<path class="st1" d="M86.86,14.2c0.61,0.62,0.77,1.34,0.77,2.71v5.37c0,0.62,0.15,0.92,0.59,0.92c0.33-0.02,0.64-0.16,0.87-0.4
		l0.22,0.33c-0.48,0.45-1.11,0.7-1.76,0.71c-1.35,0-1.66-0.81-1.66-1.72c-0.3,0.53-0.73,0.97-1.26,1.27
		c-0.53,0.3-1.12,0.46-1.73,0.45c-1.29,0-2.45-0.65-2.45-2.16s1.18-2.21,3.11-3.02c1.29-0.53,2.31-0.87,2.31-1.64v-1.21
		c0-1.62-0.79-1.94-1.79-1.94c-0.66,0-1.47,0.13-1.91,0.69c0.26,0.07,0.49,0.22,0.66,0.43c0.16,0.21,0.25,0.48,0.25,0.75
		c0.01,0.15-0.02,0.29-0.08,0.42c-0.06,0.13-0.14,0.26-0.25,0.36c-0.11,0.1-0.23,0.17-0.37,0.22c-0.14,0.05-0.28,0.06-0.43,0.05
		c-0.66,0-1.05-0.5-1.05-1.2c0-0.56,0.37-1.01,0.9-1.38c0.81-0.5,1.75-0.75,2.71-0.73C85.61,13.48,86.42,13.76,86.86,14.2z
		 M85.89,17.79c-0.21,0.31-0.63,0.51-1.85,1.12c-0.85,0.41-1.87,0.96-1.87,2.46c0,1.16,0.66,1.7,1.54,1.7
		c0.77,0,1.53-0.41,2.18-1.46L85.89,17.79z"/>
	<path class="st1" d="M32.63,30.57v1.27h-0.34v-0.96h-3.42v-3.68h0.35v3.36h2.44v-3.36h0.35v3.36L32.63,30.57z"/>
	<path class="st1" d="M36.63,29.9c0,0.64-0.45,0.99-1.39,0.99h-1.6v-3.68h1.55c0.81,0,1.31,0.33,1.31,0.94
		c0,0.2-0.06,0.39-0.19,0.55c-0.12,0.15-0.3,0.26-0.49,0.3c0.11,0,0.23,0.03,0.33,0.08c0.1,0.05,0.19,0.12,0.27,0.2
		c0.08,0.09,0.13,0.18,0.17,0.29C36.62,29.67,36.64,29.79,36.63,29.9z M34.01,28.88h1.18c0.63,0,0.98-0.24,0.98-0.7
		c0-0.46-0.35-0.69-0.98-0.69h-1.18V28.88z M36.29,29.9c0-0.5-0.3-0.73-0.99-0.73h-1.28v1.44h1.24
		C35.92,30.6,36.29,30.38,36.29,29.9z"/>
	<path class="st1" d="M41.03,29.13h-3.16c0.02,0.31,0.13,0.6,0.32,0.85c0.19,0.25,0.44,0.43,0.73,0.53c0.29,0.1,0.61,0.11,0.91,0.04
		c0.3-0.08,0.57-0.24,0.78-0.47l0.21,0.23c-0.17,0.2-0.39,0.35-0.63,0.46c-0.24,0.1-0.5,0.15-0.76,0.14
		c-0.25,0.01-0.5-0.03-0.73-0.12c-0.23-0.09-0.45-0.23-0.62-0.4c-0.18-0.18-0.32-0.39-0.41-0.62c-0.09-0.23-0.14-0.48-0.13-0.73
		c-0.02-0.24,0.02-0.48,0.1-0.71c0.08-0.23,0.21-0.43,0.37-0.61c0.16-0.18,0.36-0.32,0.58-0.41c0.22-0.1,0.46-0.15,0.7-0.15
		c0.24,0,0.48,0.05,0.7,0.15c0.22,0.1,0.42,0.24,0.58,0.41c0.16,0.18,0.29,0.38,0.37,0.61c0.08,0.23,0.11,0.47,0.1,0.71
		C41.04,29.06,41.03,29.09,41.03,29.13z M37.87,28.85h2.82c0-0.37-0.15-0.73-0.41-1c-0.26-0.26-0.62-0.41-1-0.41s-0.73,0.15-1,0.41
		C38.02,28.12,37.87,28.48,37.87,28.85z"/>
	<path class="st1" d="M44.48,27.52h-1.44v3.36h-0.35v-3.36h-1.44v-0.32h3.23V27.52z"/>
	<path class="st1" d="M48.08,29.7c0,0.78-0.52,1.21-1.48,1.2h-1.38v-3.69h0.37v1.33h1.1C47.59,28.55,48.08,28.96,48.08,29.7z
		 M47.73,29.7c0-0.6-0.37-0.87-1.12-0.89H45.6v1.8h1.01C47.34,30.65,47.73,30.3,47.73,29.7z M48.75,27.21h0.36v3.68h-0.36V27.21z"/>
	<path class="st1" d="M55.42,29.9c0,0.64-0.45,0.99-1.39,0.99h-1.59v-3.68h1.55c0.81,0,1.31,0.33,1.31,0.94
		c0,0.2-0.06,0.39-0.19,0.55c-0.13,0.15-0.3,0.26-0.5,0.3c0.11,0,0.23,0.03,0.33,0.08c0.1,0.05,0.19,0.12,0.27,0.2
		c0.08,0.09,0.13,0.18,0.17,0.29S55.43,29.79,55.42,29.9z M52.78,28.89h1.18c0.63,0,0.98-0.24,0.98-0.7c0-0.46-0.35-0.69-0.98-0.69
		h-1.18V28.89z M55.07,29.9c0-0.5-0.3-0.73-0.99-0.73h-1.3v1.44h1.24C54.7,30.6,55.07,30.38,55.07,29.9z"/>
	<path class="st1" d="M62.67,25.95v4.93h-0.37v-4.61h-3.34v4.61h-0.37v-4.93H62.67z"/>
	<path class="st1" d="M67.45,29.13h-3.16c0.02,0.31,0.13,0.6,0.32,0.85c0.19,0.25,0.44,0.43,0.73,0.53c0.29,0.1,0.61,0.11,0.91,0.04
		c0.3-0.08,0.57-0.24,0.78-0.47l0.21,0.23c-0.17,0.2-0.39,0.35-0.63,0.46c-0.24,0.1-0.5,0.15-0.76,0.14
		c-0.25,0.01-0.5-0.03-0.73-0.12s-0.45-0.23-0.62-0.4c-0.18-0.18-0.32-0.39-0.41-0.62c-0.09-0.23-0.14-0.48-0.13-0.73
		c-0.02-0.24,0.02-0.48,0.1-0.71c0.08-0.23,0.21-0.43,0.37-0.61c0.16-0.18,0.36-0.32,0.58-0.41c0.22-0.1,0.46-0.15,0.7-0.15
		c0.24,0,0.48,0.05,0.7,0.15c0.22,0.1,0.42,0.24,0.58,0.41c0.16,0.18,0.29,0.38,0.37,0.61c0.08,0.23,0.11,0.47,0.1,0.71
		C67.45,29.06,67.45,29.09,67.45,29.13z M64.29,28.85h2.82c0-0.37-0.15-0.73-0.41-1c-0.26-0.26-0.62-0.41-1-0.41
		c-0.37,0-0.73,0.15-1,0.41C64.44,28.12,64.29,28.48,64.29,28.85z"/>
	<path class="st1" d="M70.89,27.52h-1.44v3.36H69.1v-3.36h-1.45v-0.32h3.23L70.89,27.52z"/>
	<path class="st1" d="M74.61,29.13h-3.16c0.02,0.31,0.13,0.6,0.32,0.85c0.19,0.25,0.44,0.43,0.73,0.53c0.29,0.1,0.61,0.11,0.91,0.04
		c0.3-0.08,0.57-0.24,0.78-0.47l0.2,0.23c-0.17,0.2-0.39,0.35-0.63,0.46c-0.24,0.1-0.5,0.15-0.76,0.14
		c-0.25,0.01-0.5-0.03-0.73-0.12c-0.23-0.09-0.45-0.23-0.62-0.4c-0.18-0.18-0.32-0.39-0.41-0.62c-0.09-0.23-0.14-0.48-0.13-0.73
		c-0.02-0.24,0.02-0.48,0.1-0.71c0.08-0.23,0.21-0.43,0.37-0.61c0.17-0.18,0.36-0.31,0.59-0.41c0.22-0.09,0.46-0.14,0.7-0.14
		c0.24,0,0.48,0.04,0.7,0.14c0.22,0.09,0.42,0.23,0.59,0.41c0.17,0.18,0.29,0.38,0.37,0.61c0.08,0.23,0.11,0.47,0.1,0.71
		C74.62,29.06,74.61,29.09,74.61,29.13z M71.46,28.85h2.81c-0.02-0.36-0.18-0.7-0.44-0.95c-0.26-0.25-0.61-0.39-0.97-0.39
		c-0.36,0-0.71,0.14-0.97,0.39C71.63,28.15,71.48,28.49,71.46,28.85z"/>
	<path class="st1" d="M79.44,29.05c0.01,0.24-0.03,0.49-0.11,0.72c-0.09,0.23-0.22,0.44-0.39,0.61c-0.17,0.18-0.38,0.31-0.6,0.41
		c-0.23,0.09-0.47,0.14-0.72,0.13c-0.3,0.01-0.61-0.07-0.87-0.22s-0.48-0.38-0.62-0.64v2.21h-0.35v-5.05h0.34v0.87
		c0.14-0.27,0.35-0.5,0.62-0.66c0.26-0.16,0.57-0.24,0.88-0.23c0.25-0.01,0.49,0.04,0.72,0.13s0.43,0.23,0.61,0.4
		c0.17,0.18,0.31,0.38,0.39,0.61C79.41,28.55,79.45,28.8,79.44,29.05z M79.08,29.05c-0.01-0.29-0.11-0.58-0.28-0.81
		c-0.17-0.24-0.41-0.42-0.68-0.53c-0.27-0.1-0.57-0.13-0.86-0.06c-0.29,0.06-0.55,0.21-0.75,0.42c-0.2,0.21-0.34,0.48-0.39,0.77
		c-0.05,0.29-0.02,0.59,0.09,0.86c0.11,0.27,0.31,0.5,0.55,0.66c0.24,0.16,0.53,0.25,0.82,0.25c0.2,0,0.4-0.03,0.59-0.11
		c0.19-0.08,0.36-0.19,0.5-0.34c0.14-0.15,0.25-0.32,0.32-0.51C79.06,29.45,79.09,29.25,79.08,29.05z"/>
	<path class="st1" d="M84.05,29.07c0.01,0.24-0.02,0.49-0.11,0.72c-0.09,0.23-0.22,0.44-0.39,0.61s-0.38,0.31-0.6,0.4
		c-0.23,0.09-0.47,0.13-0.71,0.12c-1.22,0-1.9-0.95-1.9-2.4c0-1.67,0.61-2.4,1.84-2.69l1.64-0.41l0.06,0.33l-1.55,0.37
		c-1.12,0.26-1.62,0.84-1.64,2.24c0.12-0.33,0.34-0.61,0.63-0.81c0.29-0.2,0.64-0.29,0.99-0.28c0.24-0.01,0.47,0.03,0.69,0.12
		c0.22,0.09,0.42,0.22,0.58,0.39c0.17,0.17,0.29,0.37,0.38,0.59C84.03,28.6,84.06,28.84,84.05,29.07z M83.68,29.07
		c0.01-0.2-0.02-0.39-0.09-0.58c-0.07-0.18-0.17-0.35-0.31-0.5c-0.14-0.14-0.3-0.26-0.48-0.33c-0.18-0.08-0.38-0.12-0.57-0.12
		s-0.39,0.04-0.57,0.12c-0.18,0.08-0.34,0.19-0.48,0.33c-0.14,0.14-0.24,0.31-0.31,0.5c-0.07,0.18-0.1,0.38-0.09,0.58
		c-0.01,0.2,0.02,0.39,0.09,0.58c0.07,0.18,0.17,0.35,0.31,0.5c0.14,0.14,0.3,0.26,0.48,0.33c0.18,0.08,0.38,0.12,0.57,0.12
		s0.39-0.04,0.57-0.12c0.18-0.08,0.34-0.19,0.48-0.33c0.14-0.14,0.24-0.31,0.31-0.5S83.69,29.27,83.68,29.07z"/>
	<path class="st1" d="M88.09,27.21L86.2,31.4c-0.3,0.68-0.66,0.89-1.15,0.89c-0.16,0-0.31-0.02-0.46-0.08
		c-0.15-0.06-0.28-0.14-0.39-0.25l0.18-0.27c0.09,0.09,0.19,0.17,0.31,0.22c0.12,0.05,0.25,0.07,0.37,0.07
		c0.34,0,0.58-0.15,0.81-0.65l0.19-0.44l-1.65-3.66h0.37l1.47,3.29l1.47-3.29L88.09,27.21z"/>
	<path class="st1" d="M92.61,29.05c0.01,0.24-0.02,0.49-0.11,0.72c-0.09,0.23-0.22,0.44-0.39,0.61c-0.17,0.18-0.38,0.31-0.6,0.41
		c-0.23,0.09-0.47,0.14-0.71,0.13c-0.3,0.01-0.61-0.07-0.87-0.22c-0.26-0.15-0.48-0.37-0.63-0.64v2.21h-0.34v-5.05h0.34v0.87
		c0.14-0.27,0.35-0.5,0.62-0.66c0.26-0.16,0.57-0.24,0.88-0.23c0.24-0.01,0.49,0.04,0.71,0.13c0.23,0.09,0.43,0.23,0.6,0.41
		c0.17,0.18,0.3,0.38,0.39,0.61C92.59,28.56,92.62,28.8,92.61,29.05z M92.26,29.05c-0.01-0.29-0.11-0.58-0.28-0.81
		c-0.17-0.24-0.41-0.42-0.68-0.53c-0.27-0.1-0.57-0.13-0.86-0.06c-0.29,0.06-0.55,0.21-0.75,0.42c-0.2,0.21-0.34,0.48-0.39,0.77
		c-0.05,0.29-0.02,0.59,0.09,0.86c0.11,0.27,0.31,0.5,0.55,0.66c0.24,0.16,0.53,0.25,0.82,0.25c0.2,0,0.4-0.03,0.59-0.11
		c0.19-0.08,0.36-0.19,0.5-0.34c0.14-0.15,0.25-0.32,0.32-0.51C92.24,29.45,92.27,29.25,92.26,29.05z"/>
	<path class="st1" d="M96.27,27.52h-2.16v3.36h-0.35v-3.68h2.52V27.52z"/>
	<path class="st1" d="M99.99,29.13h-3.16c0.02,0.31,0.13,0.6,0.32,0.85c0.19,0.25,0.44,0.43,0.73,0.53c0.29,0.1,0.61,0.11,0.91,0.04
		c0.3-0.08,0.57-0.24,0.78-0.47l0.21,0.23c-0.17,0.2-0.39,0.35-0.63,0.46c-0.24,0.1-0.5,0.15-0.76,0.14
		c-0.25,0.01-0.5-0.03-0.73-0.12c-0.23-0.09-0.45-0.23-0.62-0.4c-0.18-0.18-0.32-0.39-0.41-0.62c-0.09-0.23-0.14-0.48-0.13-0.73
		c-0.02-0.24,0.02-0.48,0.1-0.71c0.08-0.23,0.21-0.43,0.37-0.61c0.17-0.18,0.37-0.31,0.59-0.41c0.22-0.09,0.46-0.14,0.7-0.14
		c0.24,0,0.48,0.04,0.7,0.14c0.22,0.09,0.42,0.23,0.59,0.41c0.16,0.18,0.29,0.38,0.37,0.61c0.08,0.23,0.11,0.47,0.09,0.71
		C100,29.06,99.99,29.09,99.99,29.13z M96.84,28.85h2.81c-0.02-0.36-0.17-0.7-0.44-0.95c-0.26-0.25-0.61-0.39-0.97-0.39
		c-0.36,0-0.71,0.14-0.97,0.39C97.01,28.15,96.86,28.49,96.84,28.85z"/>
</g>
</svg>
