<?xml version="1.0" encoding="utf-8"?>
<!-- Generator: Adobe Illustrator 23.0.1, SVG Export Plug-In . SVG Version: 6.00 Build 0)  -->
<svg version="1.1" id="Слой_1" xmlns="http://www.w3.org/2000/svg" xmlns:xlink="http://www.w3.org/1999/xlink" x="0px" y="0px"
	 viewBox="0 0 25.8 20" style="enable-background:new 0 0 25.8 20;" xml:space="preserve">
<style type="text/css">
	.st0{fill:#D99A99;}
</style>
<path class="st0" d="M25.8,2.4c-0.9,0.4-2,0.7-3,0.8c1.1-0.6,1.9-1.6,2.3-2.8c-1,0.6-2.2,1-3.4,1.2c-1-1-2.3-1.6-3.9-1.6
	c-2.9,0-5.3,2.3-5.3,5c0,0.4,0,0.8,0.1,1.2C8.3,6,4.4,4,1.8,0.9C1.3,1.7,1.1,2.5,1.1,3.5c0,1.8,0.9,3.3,2.4,4.2C2.6,7.6,1.7,7.4,1,7
	c0,0,0,0,0,0.1c0,2.4,1.8,4.5,4.2,5c-0.4,0.1-0.9,0.2-1.4,0.2c-0.3,0-0.7,0-1-0.1c0.7,2,2.6,3.5,4.9,3.5C6,17,3.7,17.8,1.3,17.8
	c-0.4,0-0.8,0-1.3-0.1C2.3,19.2,5.1,20,8.1,20c9.7,0,15-7.7,15-14.4c0-0.2,0-0.4,0-0.7C24.2,4.3,25,3.4,25.8,2.4"/>
</svg>
