<?xml version="1.0" encoding="utf-8"?>
<!-- Generator: Adobe Illustrator 23.0.1, SVG Export Plug-In . SVG Version: 6.00 Build 0)  -->
<svg version="1.1" id="Слой_1" xmlns="http://www.w3.org/2000/svg" xmlns:xlink="http://www.w3.org/1999/xlink" x="0px" y="0px"
	 viewBox="0 0 20.2 20" style="enable-background:new 0 0 20.2 20;" xml:space="preserve">
<style type="text/css">
	.st0{fill:#FFFFFF;}
</style>
<g>
	<path class="st0" d="M5.8,0C2.6,0,0,2.6,0,5.8v8.4C0,17.4,2.6,20,5.8,20h8.5c3.2,0,5.8-2.6,5.8-5.8V5.8c0-3.2-2.6-5.8-5.8-5.8H5.8z
		 M5.8,1.7h8.5c2.3,0,4.1,1.8,4.1,4.1v8.4c0,2.3-1.8,4.1-4.1,4.1H5.8c-2.3,0-4.1-1.8-4.1-4.1V5.8C1.7,3.5,3.6,1.7,5.8,1.7z
		 M15.5,3.4c-0.7,0-1.2,0.5-1.2,1.2s0.5,1.2,1.2,1.2c0.7,0,1.2-0.5,1.2-1.2C16.7,4,16.2,3.4,15.5,3.4z M10.1,4.9
		c-2.9,0-5.2,2.3-5.2,5.1s2.3,5.1,5.2,5.1s5.2-2.3,5.2-5.1S13,4.9,10.1,4.9z M10.1,6.6c1.9,0,3.5,1.5,3.5,3.4s-1.5,3.4-3.5,3.4
		c-1.9,0-3.5-1.5-3.5-3.4C6.6,8.1,8.2,6.6,10.1,6.6z"/>
</g>
</svg>
